<?xml version="1.0" encoding="UTF-8"?>
<!DOCTYPE svg PUBLIC "-//W3C//DTD SVG 1.1//EN" "http://www.w3.org/Graphics/SVG/1.1/DTD/svg11.dtd">
<svg xmlns="http://www.w3.org/2000/svg" version="1.1" width="512px" height="512px" style="shape-rendering:geometricPrecision; text-rendering:geometricPrecision; image-rendering:optimizeQuality; fill-rule:evenodd; clip-rule:evenodd" xmlns:xlink="http://www.w3.org/1999/xlink">
<g><path style="opacity:1" fill="#fefefe" d="M 443.5,84.5 C 443.427,86.0269 444.094,87.0269 445.5,87.5C 446.222,87.9175 446.722,88.5842 447,89.5C 447.667,157.5 447.667,225.5 447,293.5C 445.167,298 442,301.167 437.5,303C 316.167,303.667 194.833,303.667 73.5,303C 72.5842,302.722 71.9175,302.222 71.5,301.5C 71.0269,300.094 70.0269,299.427 68.5,299.5C 66.2918,298.106 64.7918,296.106 64,293.5C 63.3333,225.5 63.3333,157.5 64,89.5C 64.7918,86.8936 66.2918,84.8936 68.5,83.5C 70.0269,83.573 71.0269,82.9063 71.5,81.5C 71.9175,80.7784 72.5842,80.2784 73.5,80C 194.833,79.3333 316.167,79.3333 437.5,80C 440.106,80.7918 442.106,82.2918 443.5,84.5 Z"/></g>
<g><path style="opacity:0.953" fill="#b0b0b0" d="M 71.5,81.5 C 71.0269,82.9063 70.0269,83.573 68.5,83.5C 68.9731,82.0937 69.9731,81.427 71.5,81.5 Z"/></g>
<g><path style="opacity:0.769" fill="#a8a8a8" d="M 443.5,84.5 C 444.906,84.9731 445.573,85.9731 445.5,87.5C 444.094,87.0269 443.427,86.0269 443.5,84.5 Z"/></g>
<g><path style="opacity:0.792" fill="#a7a7a7" d="M 68.5,299.5 C 70.0269,299.427 71.0269,300.094 71.5,301.5C 69.9731,301.573 68.9731,300.906 68.5,299.5 Z"/></g>
<g><path style="opacity:1" fill="#fefefe" d="M 444.5,324.5 C 444.427,326.027 445.094,327.027 446.5,327.5C 447.338,327.842 447.672,328.508 447.5,329.5C 447.427,331.027 448.094,332.027 449.5,332.5C 451.008,334.181 452.008,336.181 452.5,338.5C 452.427,340.027 453.094,341.027 454.5,341.5C 456.341,343.849 457.674,346.515 458.5,349.5C 458.427,351.027 459.094,352.027 460.5,352.5C 462.008,354.181 463.008,356.181 463.5,358.5C 463.427,360.027 464.094,361.027 465.5,361.5C 467.008,363.181 468.008,365.181 468.5,367.5C 468.427,369.027 469.094,370.027 470.5,370.5C 472.341,372.849 473.674,375.515 474.5,378.5C 474.427,380.027 475.094,381.027 476.5,381.5C 478.008,383.181 479.008,385.181 479.5,387.5C 479.427,389.027 480.094,390.027 481.5,390.5C 483.008,392.181 484.008,394.181 484.5,396.5C 484.427,398.027 485.094,399.027 486.5,399.5C 488.341,401.849 489.674,404.515 490.5,407.5C 490.427,409.027 491.094,410.027 492.5,410.5C 497.997,419.466 495.997,426.299 486.5,431C 332.5,431.667 178.5,431.667 24.5,431C 23.5842,430.722 22.9175,430.222 22.5,429.5C 22.0269,428.094 21.0269,427.427 19.5,427.5C 16.6946,425.397 15.0279,422.563 14.5,419C 15.5191,415.131 17.1857,411.631 19.5,408.5C 20.9063,408.027 21.573,407.027 21.5,405.5C 21.9925,403.181 22.9925,401.181 24.5,399.5C 25.9063,399.027 26.573,398.027 26.5,396.5C 27.3257,393.515 28.659,390.849 30.5,388.5C 31.9063,388.027 32.573,387.027 32.5,385.5C 32.9925,383.181 33.9925,381.181 35.5,379.5C 36.9063,379.027 37.573,378.027 37.5,376.5C 37.9925,374.181 38.9925,372.181 40.5,370.5C 41.9063,370.027 42.573,369.027 42.5,367.5C 43.3257,364.515 44.659,361.849 46.5,359.5C 47.9063,359.027 48.573,358.027 48.5,356.5C 48.9925,354.181 49.9925,352.181 51.5,350.5C 52.9063,350.027 53.573,349.027 53.5,347.5C 53.9925,345.181 54.9925,343.181 56.5,341.5C 57.9063,341.027 58.573,340.027 58.5,338.5C 59.3257,335.515 60.659,332.849 62.5,330.5C 63.9063,330.027 64.573,329.027 64.5,327.5C 64.7376,325.596 65.7376,324.262 67.5,323.5C 69.0269,323.573 70.0269,322.906 70.5,321.5C 70.9175,320.778 71.5842,320.278 72.5,320C 194.5,319.333 316.5,319.333 438.5,320C 441.106,320.792 443.106,322.292 444.5,324.5 Z M 296.5,370.5 C 297.167,371.833 298.167,372.833 299.5,373.5C 303.08,379.64 303.413,385.974 300.5,392.5C 298.833,393.5 297.5,394.833 296.5,396.5C 295.508,396.328 294.842,396.662 294.5,397.5C 291.99,397.927 289.657,398.593 287.5,399.5C 266.164,399.667 244.831,399.5 223.5,399C 219.845,398.669 216.512,397.502 213.5,395.5C 212.833,394.167 211.833,393.167 210.5,392.5C 205.78,382.061 208.447,374.228 218.5,369C 241.458,367.386 264.458,367.053 287.5,368C 290.652,368.395 293.652,369.228 296.5,370.5 Z"/></g>
<g><path style="opacity:0.984" fill="#bcbcbc" d="M 70.5,321.5 C 70.0269,322.906 69.0269,323.573 67.5,323.5C 67.9731,322.094 68.9731,321.427 70.5,321.5 Z"/></g>
<g><path style="opacity:0.827" fill="#adadad" d="M 444.5,324.5 C 445.906,324.973 446.573,325.973 446.5,327.5C 445.094,327.027 444.427,326.027 444.5,324.5 Z"/></g>
<g><path style="opacity:0.596" fill="#a0a0a0" d="M 64.5,327.5 C 64.573,329.027 63.9063,330.027 62.5,330.5C 62.427,328.973 63.0937,327.973 64.5,327.5 Z"/></g>
<g><path style="opacity:0.612" fill="#a2a2a2" d="M 447.5,329.5 C 448.906,329.973 449.573,330.973 449.5,332.5C 448.094,332.027 447.427,331.027 447.5,329.5 Z"/></g>
<g><path style="opacity:0.678" fill="#a6a6a6" d="M 58.5,338.5 C 58.573,340.027 57.9063,341.027 56.5,341.5C 56.427,339.973 57.0937,338.973 58.5,338.5 Z"/></g>
<g><path style="opacity:0.565" fill="#9f9f9f" d="M 452.5,338.5 C 453.906,338.973 454.573,339.973 454.5,341.5C 453.094,341.027 452.427,340.027 452.5,338.5 Z"/></g>
<g><path style="opacity:0.635" fill="#a3a3a3" d="M 53.5,347.5 C 53.573,349.027 52.9063,350.027 51.5,350.5C 51.427,348.973 52.0937,347.973 53.5,347.5 Z"/></g>
<g><path style="opacity:0.651" fill="#a4a4a4" d="M 458.5,349.5 C 459.906,349.973 460.573,350.973 460.5,352.5C 459.094,352.027 458.427,351.027 458.5,349.5 Z"/></g>
<g><path style="opacity:0.592" fill="#a0a0a0" d="M 48.5,356.5 C 48.573,358.027 47.9063,359.027 46.5,359.5C 46.427,357.973 47.0937,356.973 48.5,356.5 Z"/></g>
<g><path style="opacity:0.6" fill="#a2a2a2" d="M 463.5,358.5 C 464.906,358.973 465.573,359.973 465.5,361.5C 464.094,361.027 463.427,360.027 463.5,358.5 Z"/></g>
<g><path style="opacity:0.663" fill="#a5a5a5" d="M 42.5,367.5 C 42.573,369.027 41.9063,370.027 40.5,370.5C 40.427,368.973 41.0937,367.973 42.5,367.5 Z"/></g>
<g><path style="opacity:0.557" fill="#9e9e9e" d="M 468.5,367.5 C 469.906,367.973 470.573,368.973 470.5,370.5C 469.094,370.027 468.427,369.027 468.5,367.5 Z"/></g>
<g><path style="opacity:0.992" fill="#b5b5b5" d="M 296.5,370.5 C 298.5,370.5 299.5,371.5 299.5,373.5C 298.167,372.833 297.167,371.833 296.5,370.5 Z"/></g>
<g><path style="opacity:0.62" fill="#a2a2a2" d="M 37.5,376.5 C 37.573,378.027 36.9063,379.027 35.5,379.5C 35.427,377.973 36.0937,376.973 37.5,376.5 Z"/></g>
<g><path style="opacity:0.639" fill="#a4a4a4" d="M 474.5,378.5 C 475.906,378.973 476.573,379.973 476.5,381.5C 475.094,381.027 474.427,380.027 474.5,378.5 Z"/></g>
<g><path style="opacity:0.576" fill="#9f9f9f" d="M 32.5,385.5 C 32.573,387.027 31.9063,388.027 30.5,388.5C 30.427,386.973 31.0937,385.973 32.5,385.5 Z"/></g>
<g><path style="opacity:0.592" fill="#a1a1a1" d="M 479.5,387.5 C 480.906,387.973 481.573,388.973 481.5,390.5C 480.094,390.027 479.427,389.027 479.5,387.5 Z"/></g>
<g><path style="opacity:0.992" fill="#b5b5b5" d="M 210.5,392.5 C 211.833,393.167 212.833,394.167 213.5,395.5C 211.5,395.5 210.5,394.5 210.5,392.5 Z"/></g>
<g><path style="opacity:0.969" fill="#bebebe" d="M 300.5,392.5 C 300.167,394.833 298.833,396.167 296.5,396.5C 297.5,394.833 298.833,393.5 300.5,392.5 Z"/></g>
<g><path style="opacity:0.659" fill="#a5a5a5" d="M 26.5,396.5 C 26.573,398.027 25.9063,399.027 24.5,399.5C 24.427,397.973 25.0937,396.973 26.5,396.5 Z"/></g>
<g><path style="opacity:0.996" fill="#b3b3b3" d="M 294.5,397.5 C 294.389,398.117 294.056,398.617 293.5,399C 291.527,399.495 289.527,399.662 287.5,399.5C 289.657,398.593 291.99,397.927 294.5,397.5 Z"/></g>
<g><path style="opacity:0.545" fill="#9d9d9d" d="M 484.5,396.5 C 485.906,396.973 486.573,397.973 486.5,399.5C 485.094,399.027 484.427,398.027 484.5,396.5 Z"/></g>
<g><path style="opacity:0.616" fill="#a2a2a2" d="M 21.5,405.5 C 21.573,407.027 20.9063,408.027 19.5,408.5C 19.427,406.973 20.0937,405.973 21.5,405.5 Z"/></g>
<g><path style="opacity:0.631" fill="#a3a3a3" d="M 490.5,407.5 C 491.906,407.973 492.573,408.973 492.5,410.5C 491.094,410.027 490.427,409.027 490.5,407.5 Z"/></g>
<g><path style="opacity:0.698" fill="#a3a3a3" d="M 19.5,427.5 C 21.0269,427.427 22.0269,428.094 22.5,429.5C 20.9731,429.573 19.9731,428.906 19.5,427.5 Z"/></g>
</svg>
