<svg id="svg" version="1.1" xmlns="http://www.w3.org/2000/svg" xmlns:xlink="http://www.w3.org/1999/xlink" width="400" height="100.42075736325386" viewBox="0, 0, 400,100.42075736325386"><g id="svgg"><path id="path0" d="M56.972 0.158 C 56.942 0.245,56.579 0.332,56.167 0.352 C 55.754 0.371,55.294 0.491,55.144 0.619 C 54.993 0.747,54.712 0.863,54.519 0.878 C 54.325 0.892,54.167 1.001,54.167 1.119 C 54.167 1.237,54.035 1.342,53.875 1.353 C 53.715 1.363,53.508 1.389,53.417 1.411 C 53.325 1.432,53.081 1.461,52.875 1.475 C 52.664 1.489,52.500 1.609,52.500 1.750 C 52.500 1.975,52.302 2.074,51.958 2.020 C 51.890 2.009,51.833 2.113,51.833 2.250 C 51.833 2.502,51.663 2.564,51.121 2.508 C 50.959 2.491,50.836 2.539,50.849 2.614 C 50.914 2.989,50.802 3.167,50.500 3.167 C 50.315 3.167,50.167 3.278,50.167 3.417 C 50.167 3.633,49.720 3.753,49.394 3.625 C 49.336 3.602,49.224 3.757,49.146 3.969 C 49.067 4.181,48.929 4.309,48.838 4.253 C 48.538 4.067,48.000 4.497,48.000 4.923 C 48.000 5.269,47.921 5.333,47.496 5.333 C 47.111 5.333,46.954 5.432,46.833 5.750 C 46.746 5.979,46.631 6.167,46.578 6.167 C 46.524 6.167,46.534 6.080,46.599 5.974 C 46.673 5.855,46.645 5.827,46.526 5.901 C 46.420 5.966,46.333 6.128,46.333 6.260 C 46.333 6.392,46.183 6.500,46.000 6.500 C 45.815 6.500,45.667 6.611,45.667 6.750 C 45.667 6.888,45.554 7.000,45.417 7.000 C 45.279 7.000,45.167 7.112,45.167 7.250 C 45.167 7.388,45.054 7.500,44.917 7.500 C 44.779 7.500,44.676 7.556,44.686 7.625 C 44.745 7.994,44.632 8.167,44.333 8.167 C 44.148 8.167,44.000 8.278,44.000 8.417 C 44.000 8.554,43.887 8.667,43.750 8.667 C 43.611 8.667,43.500 8.815,43.500 9.000 C 43.500 9.185,43.389 9.333,43.250 9.333 C 43.112 9.333,43.000 9.446,43.000 9.583 C 43.000 9.721,42.917 9.833,42.815 9.833 C 42.592 9.833,41.840 10.523,41.836 10.732 C 41.835 10.813,41.705 10.974,41.548 11.089 C 41.391 11.203,41.247 11.512,41.228 11.774 C 41.209 12.036,41.188 12.344,41.180 12.458 C 41.173 12.573,41.054 12.667,40.917 12.667 C 40.779 12.667,40.667 12.771,40.667 12.899 C 40.667 13.027,40.554 13.174,40.417 13.227 C 40.245 13.293,40.167 13.561,40.167 14.078 C 40.167 14.722,40.118 14.833,39.833 14.833 C 39.611 14.833,39.500 14.944,39.500 15.167 C 39.500 15.352,39.389 15.500,39.250 15.500 C 39.061 15.500,39.000 15.704,39.000 16.333 C 39.000 16.963,38.939 17.167,38.750 17.167 C 38.612 17.167,38.500 17.279,38.500 17.417 C 38.500 17.556,38.352 17.667,38.167 17.667 C 37.975 17.667,37.833 17.778,37.833 17.929 C 37.833 18.073,37.721 18.303,37.583 18.440 C 37.446 18.578,37.333 18.938,37.333 19.241 C 37.333 19.545,37.221 19.886,37.083 20.000 C 36.946 20.114,36.833 20.386,36.833 20.604 C 36.833 20.889,36.740 21.000,36.500 21.000 C 36.230 21.000,36.167 21.111,36.167 21.583 C 36.167 21.991,36.091 22.167,35.917 22.167 C 35.779 22.167,35.667 22.252,35.667 22.357 C 35.667 22.461,35.547 22.634,35.400 22.742 C 35.250 22.851,35.094 23.281,35.045 23.718 C 34.988 24.226,34.877 24.500,34.728 24.500 C 34.603 24.500,34.500 24.604,34.500 24.732 C 34.500 24.860,34.387 25.008,34.250 25.060 C 34.112 25.113,34.000 25.314,34.000 25.507 C 34.000 25.886,33.605 26.382,33.437 26.214 C 33.380 26.158,33.333 26.354,33.333 26.651 C 33.333 26.948,33.221 27.303,33.083 27.440 C 32.946 27.578,32.833 27.835,32.833 28.012 C 32.833 28.189,32.721 28.333,32.583 28.333 C 32.410 28.333,32.333 28.507,32.333 28.897 C 32.333 29.321,32.250 29.483,32.000 29.548 C 31.775 29.607,31.667 29.776,31.667 30.068 C 31.667 30.341,31.575 30.500,31.417 30.500 C 31.279 30.500,31.176 30.556,31.186 30.625 C 31.268 31.144,31.133 31.667,30.917 31.667 C 30.779 31.667,30.679 31.723,30.694 31.792 C 30.763 32.106,30.440 32.833,30.232 32.833 C 30.104 32.833,30.000 32.983,30.000 33.167 C 30.000 33.350,29.906 33.481,29.792 33.458 C 29.654 33.431,29.566 33.680,29.533 34.191 C 29.494 34.794,29.411 34.984,29.158 35.050 C 28.969 35.100,28.833 35.279,28.833 35.479 C 28.833 35.720,28.757 35.793,28.577 35.724 C 28.435 35.670,28.332 35.691,28.346 35.771 C 28.440 36.284,28.304 36.833,28.083 36.833 C 27.917 36.833,27.833 37.000,27.833 37.333 C 27.833 37.722,27.759 37.833,27.500 37.833 C 27.232 37.833,27.167 37.944,27.167 38.396 C 27.167 38.706,27.054 39.053,26.917 39.167 C 26.779 39.281,26.666 39.496,26.666 39.645 C 26.665 39.795,26.403 40.202,26.083 40.551 C 25.652 41.019,25.500 41.335,25.500 41.759 C 25.500 42.158,25.424 42.333,25.250 42.333 C 25.111 42.333,25.000 42.481,25.000 42.667 C 25.000 42.852,24.889 43.000,24.750 43.000 C 24.510 43.000,24.453 43.218,24.439 44.184 C 24.435 44.470,24.345 44.612,24.175 44.601 C 24.001 44.589,23.900 44.760,23.864 45.125 C 23.832 45.461,23.721 45.667,23.573 45.667 C 23.429 45.667,23.333 45.832,23.333 46.082 C 23.333 46.317,23.188 46.588,23.000 46.705 C 22.817 46.820,22.667 47.000,22.667 47.106 C 22.667 47.211,22.553 47.341,22.415 47.394 C 22.277 47.447,22.173 47.549,22.185 47.620 C 22.260 48.079,22.132 48.500,21.917 48.500 C 21.744 48.500,21.667 48.674,21.667 49.064 C 21.667 49.499,21.586 49.649,21.311 49.721 C 21.049 49.789,20.980 49.904,21.046 50.159 C 21.107 50.392,21.033 50.560,20.818 50.675 C 20.615 50.784,20.500 51.023,20.500 51.339 C 20.500 51.667,20.416 51.833,20.250 51.833 C 20.075 51.833,20.000 52.009,20.000 52.417 C 20.000 52.947,19.875 53.086,19.458 53.020 C 19.390 53.009,19.333 53.178,19.333 53.396 C 19.333 53.614,19.221 53.886,19.083 54.000 C 18.946 54.114,18.833 54.340,18.833 54.503 C 18.833 54.665,18.716 54.843,18.573 54.898 C 18.429 54.953,18.359 55.073,18.416 55.165 C 18.473 55.258,18.440 55.333,18.343 55.333 C 18.246 55.333,18.167 55.438,18.167 55.566 C 18.167 55.693,18.054 55.841,17.917 55.894 C 17.745 55.959,17.667 56.227,17.667 56.745 C 17.667 57.305,17.602 57.500,17.417 57.500 C 17.279 57.500,17.167 57.604,17.167 57.731 C 17.167 57.857,17.017 58.000,16.833 58.048 C 16.562 58.119,16.500 58.276,16.500 58.883 C 16.500 59.394,16.421 59.661,16.250 59.727 C 16.112 59.780,16.000 59.938,16.000 60.078 C 16.000 60.218,15.887 60.333,15.750 60.333 C 15.602 60.333,15.500 60.486,15.500 60.710 C 15.500 60.917,15.343 61.185,15.150 61.305 C 14.937 61.438,14.831 61.639,14.878 61.821 C 14.974 62.186,14.705 62.710,14.490 62.577 C 14.404 62.524,14.333 62.626,14.333 62.803 C 14.333 62.981,14.229 63.213,14.101 63.319 C 13.973 63.425,13.819 63.776,13.758 64.098 C 13.698 64.420,13.540 64.726,13.407 64.777 C 13.275 64.827,13.167 64.964,13.167 65.081 C 13.167 65.197,13.054 65.386,12.917 65.500 C 12.774 65.618,12.667 65.981,12.667 66.343 C 12.667 66.841,12.592 67.001,12.317 67.089 C 12.052 67.173,11.987 67.300,12.046 67.613 C 12.100 67.893,12.038 68.060,11.854 68.130 C 11.417 68.298,11.012 68.883,11.006 69.356 C 11.002 69.661,10.892 69.823,10.645 69.887 C 10.400 69.951,10.322 70.065,10.394 70.252 C 10.521 70.582,10.213 71.215,9.992 71.078 C 9.905 71.024,9.833 71.210,9.833 71.490 C 9.833 71.807,9.748 72.000,9.609 72.000 C 9.471 72.000,9.378 72.203,9.369 72.525 C 9.354 73.047,9.065 73.393,8.788 73.222 C 8.709 73.173,8.658 73.234,8.675 73.358 C 8.754 73.931,8.647 74.333,8.417 74.333 C 8.242 74.333,8.167 74.509,8.167 74.911 C 8.167 75.304,8.100 75.465,7.958 75.411 C 7.740 75.330,7.000 76.472,7.000 76.890 C 7.000 77.023,6.887 77.174,6.750 77.227 C 6.612 77.280,6.500 77.505,6.500 77.727 C 6.500 77.949,6.395 78.171,6.266 78.221 C 6.137 78.270,5.982 78.535,5.922 78.808 C 5.862 79.082,5.705 79.347,5.573 79.398 C 5.437 79.450,5.333 79.709,5.333 79.995 C 5.333 80.333,5.251 80.500,5.083 80.500 C 4.909 80.500,4.833 80.676,4.833 81.083 C 4.833 81.491,4.758 81.667,4.583 81.667 C 4.446 81.667,4.324 81.742,4.313 81.833 C 4.301 81.925,4.273 82.075,4.250 82.167 C 4.227 82.258,4.199 82.408,4.188 82.500 C 4.176 82.592,4.054 82.667,3.917 82.667 C 3.779 82.667,3.667 82.809,3.667 82.982 C 3.667 83.156,3.554 83.341,3.417 83.394 C 3.245 83.459,3.167 83.727,3.167 84.245 C 3.167 84.896,3.119 85.000,2.823 85.000 C 2.635 85.000,2.525 85.073,2.580 85.161 C 2.635 85.250,2.527 85.418,2.340 85.535 C 2.084 85.694,2.000 85.923,2.000 86.457 C 2.000 86.954,1.930 87.167,1.767 87.167 C 1.040 87.167,0.423 90.687,1.105 90.948 C 1.230 90.996,1.333 91.145,1.333 91.278 C 1.333 91.411,1.394 91.482,1.468 91.436 C 1.542 91.391,1.741 91.537,1.910 91.762 L 2.217 92.171 13.519 92.164 C 23.274 92.159,24.841 92.124,24.959 91.913 C 25.034 91.779,25.299 91.652,25.548 91.631 C 25.940 91.599,26.000 91.522,26.000 91.047 C 26.000 90.611,26.068 90.500,26.333 90.500 C 26.519 90.500,26.667 90.389,26.667 90.250 C 26.667 90.112,26.779 90.000,26.917 90.000 C 27.071 90.000,27.167 89.844,27.167 89.593 C 27.167 89.368,27.324 89.076,27.518 88.939 C 27.711 88.804,27.819 88.612,27.758 88.513 C 27.692 88.407,27.787 88.333,27.990 88.333 C 28.222 88.333,28.333 88.225,28.333 88.000 C 28.333 87.815,28.444 87.667,28.583 87.667 C 28.749 87.667,28.833 87.501,28.833 87.173 C 28.833 86.855,28.948 86.617,29.156 86.506 C 29.333 86.411,29.502 86.127,29.531 85.875 C 29.560 85.617,29.674 85.435,29.792 85.458 C 29.930 85.486,30.000 85.279,30.000 84.839 C 30.000 84.305,30.051 84.197,30.263 84.278 C 30.429 84.342,30.513 84.294,30.493 84.148 C 30.401 83.491,30.514 83.167,30.833 83.167 C 31.079 83.167,31.167 83.056,31.167 82.745 C 31.167 82.513,31.279 82.280,31.417 82.227 C 31.570 82.168,31.667 81.916,31.667 81.577 C 31.667 81.169,31.755 80.995,32.000 80.917 C 32.183 80.858,32.333 80.710,32.333 80.586 C 32.333 80.462,32.413 80.334,32.511 80.302 C 32.608 80.269,32.732 79.914,32.786 79.513 C 32.877 78.833,33.304 78.167,33.649 78.167 C 33.861 78.167,34.000 77.731,34.000 77.070 C 34.000 76.674,34.077 76.500,34.250 76.500 C 34.425 76.500,34.500 76.324,34.500 75.917 C 34.500 75.539,34.579 75.333,34.724 75.333 C 35.064 75.333,35.483 74.791,35.602 74.197 C 35.661 73.905,35.811 73.667,35.938 73.667 C 36.094 73.667,36.167 73.455,36.167 73.000 C 36.167 72.568,36.237 72.348,36.367 72.375 C 36.564 72.416,36.604 72.318,36.646 71.685 C 36.658 71.494,36.782 71.379,36.958 71.394 C 37.172 71.410,37.264 71.271,37.302 70.875 C 37.335 70.539,37.446 70.333,37.594 70.333 C 37.756 70.333,37.833 70.146,37.833 69.750 C 37.833 69.325,37.906 69.167,38.101 69.167 C 38.271 69.167,38.334 69.075,38.273 68.917 C 38.220 68.779,38.250 68.667,38.339 68.667 C 38.427 68.667,38.500 68.562,38.500 68.434 C 38.500 68.307,38.612 68.159,38.750 68.106 C 38.887 68.054,39.000 67.905,39.000 67.776 C 39.000 67.646,39.112 67.447,39.250 67.333 C 39.394 67.214,39.500 66.851,39.500 66.480 C 39.500 65.944,39.557 65.833,39.833 65.833 C 40.049 65.833,40.167 65.722,40.167 65.518 C 40.167 65.344,40.279 65.159,40.417 65.106 C 40.588 65.041,40.667 64.773,40.667 64.260 C 40.667 63.662,40.717 63.530,40.917 63.606 C 41.087 63.672,41.167 63.597,41.167 63.371 C 41.167 63.175,41.309 63.002,41.513 62.948 C 41.722 62.894,41.846 62.738,41.827 62.554 C 41.747 61.795,41.845 61.333,42.083 61.333 C 42.222 61.333,42.333 61.185,42.333 61.000 C 42.333 60.815,42.444 60.667,42.583 60.667 C 42.721 60.667,42.833 60.547,42.833 60.401 C 42.833 60.255,42.983 59.945,43.167 59.712 C 43.350 59.479,43.500 59.111,43.500 58.894 C 43.500 58.655,43.598 58.500,43.750 58.500 C 43.909 58.500,44.000 58.340,44.000 58.060 C 44.000 57.818,44.131 57.513,44.292 57.381 C 44.482 57.225,44.497 57.179,44.333 57.250 C 44.170 57.321,44.184 57.275,44.375 57.119 C 44.535 56.987,44.667 56.752,44.667 56.595 C 44.667 56.438,44.779 56.197,44.917 56.060 C 45.054 55.922,45.167 55.673,45.167 55.506 C 45.167 55.339,45.279 55.159,45.417 55.106 C 45.560 55.051,45.667 54.803,45.667 54.525 C 45.667 54.179,45.763 54.014,46.000 53.952 C 46.225 53.893,46.333 53.724,46.333 53.432 C 46.333 53.159,46.425 53.000,46.583 53.000 C 46.721 53.000,46.833 52.858,46.833 52.684 C 46.833 52.511,46.946 52.326,47.083 52.273 C 47.255 52.207,47.333 51.939,47.333 51.422 C 47.333 50.771,47.381 50.667,47.677 50.667 C 47.865 50.667,47.975 50.594,47.920 50.505 C 47.865 50.417,47.973 50.249,48.160 50.132 C 48.416 49.972,48.500 49.744,48.500 49.210 C 48.500 48.714,48.570 48.500,48.732 48.500 C 48.987 48.500,49.167 48.150,49.167 47.653 C 49.167 47.477,49.279 47.333,49.417 47.333 C 49.591 47.333,49.667 47.157,49.667 46.750 C 49.667 46.343,49.742 46.167,49.917 46.167 C 50.083 46.167,50.167 46.000,50.167 45.667 C 50.167 45.329,50.249 45.167,50.422 45.167 C 50.562 45.167,50.727 45.035,50.788 44.875 C 50.848 44.715,51.000 44.480,51.125 44.354 C 51.250 44.228,51.339 43.965,51.324 43.771 C 51.251 42.838,51.342 42.333,51.583 42.333 C 51.721 42.333,51.833 42.188,51.833 42.011 C 51.833 41.834,51.983 41.642,52.167 41.583 C 52.374 41.517,52.500 41.331,52.500 41.090 C 52.500 40.877,52.612 40.659,52.750 40.606 C 52.897 40.550,53.000 40.300,53.000 40.000 C 53.000 39.700,53.103 39.450,53.250 39.394 C 53.420 39.328,53.500 39.063,53.500 38.566 C 53.500 37.944,53.551 37.833,53.833 37.833 C 54.103 37.833,54.167 37.722,54.167 37.250 C 54.167 36.843,54.242 36.667,54.417 36.667 C 54.554 36.667,54.667 36.562,54.667 36.434 C 54.667 36.307,54.768 36.163,54.893 36.116 C 55.017 36.068,55.162 35.706,55.215 35.312 C 55.268 34.918,55.429 34.509,55.572 34.404 C 55.716 34.299,55.833 34.015,55.833 33.773 C 55.833 33.493,55.924 33.333,56.083 33.333 C 56.250 33.333,56.333 33.167,56.333 32.833 C 56.333 32.556,56.481 32.185,56.667 32.000 C 56.850 31.817,57.000 31.517,57.000 31.333 C 57.000 31.148,57.111 31.000,57.250 31.000 C 57.424 31.000,57.500 30.825,57.500 30.422 C 57.500 29.990,57.560 29.867,57.738 29.935 C 57.902 29.998,57.992 29.884,58.029 29.567 C 58.065 29.261,58.250 29.017,58.583 28.833 C 58.911 28.653,59.102 28.405,59.136 28.113 C 59.166 27.861,59.293 27.667,59.428 27.667 C 59.560 27.667,59.667 27.509,59.667 27.316 C 59.667 27.096,59.748 26.995,59.884 27.048 C 60.155 27.152,60.897 26.404,60.753 26.172 C 60.695 26.077,60.783 26.000,60.950 26.000 C 61.117 26.000,61.349 25.847,61.465 25.660 C 61.582 25.473,61.750 25.365,61.839 25.420 C 61.927 25.475,62.000 25.403,62.000 25.260 C 62.000 25.094,62.150 25.000,62.415 25.000 C 62.650 25.000,62.921 24.855,63.039 24.667 C 63.165 24.464,63.427 24.333,63.707 24.333 C 64.004 24.333,64.167 24.245,64.167 24.083 C 64.167 23.883,64.438 23.830,65.542 23.816 C 67.535 23.790,67.895 23.829,68.102 24.095 C 68.203 24.226,68.522 24.333,68.810 24.333 C 69.227 24.333,69.333 24.403,69.333 24.677 C 69.333 24.877,69.407 24.974,69.511 24.910 C 69.609 24.849,69.730 24.956,69.780 25.148 C 69.830 25.340,69.935 25.457,70.013 25.408 C 70.092 25.360,70.251 25.473,70.368 25.660 C 70.485 25.847,70.675 26.000,70.790 26.000 C 70.906 26.000,71.000 26.150,71.000 26.333 C 71.000 26.521,71.111 26.667,71.254 26.667 C 71.403 26.667,71.550 26.873,71.608 27.167 C 71.663 27.442,71.811 27.667,71.938 27.667 C 72.064 27.667,72.167 27.782,72.167 27.922 C 72.167 28.062,72.279 28.220,72.417 28.273 C 72.554 28.326,72.667 28.473,72.667 28.601 C 72.667 28.729,72.779 28.833,72.917 28.833 C 73.085 28.833,73.167 29.002,73.167 29.349 C 73.167 29.724,73.257 29.888,73.500 29.952 C 73.683 30.000,73.843 30.180,73.854 30.353 C 73.889 30.884,73.908 30.932,74.193 31.217 C 74.364 31.388,74.434 31.634,74.375 31.859 C 74.299 32.148,74.337 32.201,74.557 32.117 C 74.783 32.030,74.833 32.119,74.833 32.604 C 74.833 33.058,74.912 33.218,75.167 33.285 C 75.477 33.366,75.577 33.671,75.514 34.344 C 75.500 34.488,75.640 34.742,75.824 34.908 C 76.008 35.075,76.119 35.276,76.070 35.356 C 76.020 35.435,76.097 35.500,76.240 35.500 C 76.389 35.500,76.500 35.643,76.500 35.833 C 76.500 36.017,76.649 36.315,76.830 36.497 C 77.012 36.679,77.178 37.054,77.199 37.330 C 77.221 37.610,77.333 37.833,77.452 37.833 C 77.638 37.833,77.757 38.293,77.682 38.723 C 77.668 38.799,77.809 38.902,77.995 38.950 C 78.232 39.012,78.333 39.177,78.333 39.499 C 78.333 39.752,78.446 40.053,78.583 40.167 C 78.721 40.281,78.833 40.552,78.833 40.770 C 78.833 40.998,78.932 41.167,79.066 41.167 C 79.357 41.167,79.504 41.532,79.390 41.969 C 79.336 42.175,79.435 42.435,79.651 42.651 C 79.843 42.843,80.000 43.112,80.000 43.250 C 80.000 43.387,80.112 43.500,80.250 43.500 C 80.417 43.500,80.500 43.667,80.500 44.000 C 80.500 44.333,80.583 44.500,80.750 44.500 C 80.914 44.500,81.000 44.664,81.000 44.974 C 81.000 45.237,81.149 45.583,81.333 45.750 C 81.517 45.916,81.667 46.228,81.667 46.442 C 81.667 46.679,81.766 46.833,81.917 46.833 C 82.054 46.833,82.178 46.965,82.192 47.125 C 82.206 47.285,82.235 47.492,82.256 47.583 C 82.277 47.675,82.304 47.881,82.314 48.042 C 82.325 48.202,82.446 48.333,82.583 48.333 C 82.721 48.333,82.833 48.459,82.833 48.612 C 82.833 48.765,82.955 49.025,83.104 49.190 C 83.253 49.354,83.375 49.678,83.375 49.908 C 83.375 50.139,83.478 50.413,83.604 50.517 C 83.730 50.622,83.833 50.806,83.833 50.926 C 83.833 51.046,83.983 51.192,84.167 51.250 C 84.400 51.324,84.500 51.502,84.500 51.845 C 84.500 52.168,84.585 52.333,84.750 52.333 C 84.917 52.333,85.000 52.500,85.000 52.834 C 85.000 53.425,85.580 54.583,85.876 54.583 C 86.005 54.583,86.103 54.885,86.134 55.384 C 86.167 55.890,86.274 56.218,86.426 56.277 C 86.558 56.327,86.667 56.551,86.667 56.773 C 86.667 56.995,86.775 57.219,86.906 57.269 C 87.038 57.320,87.195 57.585,87.256 57.859 C 87.316 58.132,87.470 58.396,87.599 58.446 C 87.728 58.495,87.833 58.678,87.833 58.851 C 87.833 59.025,87.946 59.167,88.083 59.167 C 88.313 59.167,88.410 59.451,88.349 59.946 C 88.335 60.053,88.477 60.190,88.662 60.249 C 88.935 60.335,89.000 60.499,89.000 61.095 C 89.000 61.640,89.065 61.833,89.250 61.833 C 89.388 61.833,89.500 61.937,89.500 62.063 C 89.500 62.189,89.612 62.386,89.750 62.500 C 89.888 62.614,90.000 62.917,90.000 63.173 C 90.000 63.809,90.157 64.167,90.434 64.167 C 90.582 64.167,90.667 64.351,90.667 64.672 C 90.667 64.966,90.771 65.217,90.915 65.272 C 91.051 65.325,91.242 65.660,91.338 66.017 C 91.434 66.374,91.589 66.667,91.683 66.667 C 91.776 66.667,91.808 66.740,91.753 66.829 C 91.698 66.918,91.806 67.122,91.993 67.283 C 92.180 67.443,92.333 67.707,92.333 67.870 C 92.333 68.033,92.446 68.167,92.583 68.167 C 92.765 68.167,92.833 68.354,92.833 68.856 C 92.833 69.523,93.386 70.333,93.842 70.333 C 93.929 70.333,94.000 70.446,94.000 70.583 C 94.000 70.721,94.070 70.833,94.155 70.833 C 94.241 70.833,94.358 70.983,94.417 71.167 C 94.475 71.350,94.659 71.500,94.827 71.500 C 94.994 71.500,95.174 71.613,95.227 71.750 C 95.280 71.888,95.435 72.000,95.573 72.000 C 95.727 72.000,95.786 72.096,95.727 72.250 C 95.653 72.444,95.766 72.500,96.232 72.500 C 96.709 72.500,96.833 72.565,96.833 72.813 C 96.833 73.040,96.954 73.125,97.279 73.125 C 97.524 73.125,97.813 73.247,97.922 73.396 C 98.057 73.581,98.374 73.667,98.922 73.667 C 99.451 73.667,99.834 73.766,100.047 73.958 C 100.507 74.372,112.868 74.337,113.329 73.921 C 113.559 73.712,114.165 73.667,116.721 73.667 L 119.833 73.667 119.833 72.990 C 119.833 72.587,119.767 72.355,119.669 72.415 C 119.574 72.474,119.546 72.407,119.603 72.259 C 119.667 72.091,119.608 72.000,119.434 72.000 C 119.287 72.000,119.167 71.887,119.167 71.750 C 119.167 71.612,119.054 71.500,118.917 71.500 C 118.749 71.500,118.667 71.333,118.667 70.995 C 118.667 70.699,118.563 70.450,118.417 70.394 C 118.279 70.341,118.167 70.160,118.167 69.992 C 118.167 69.824,118.090 69.639,117.997 69.582 C 117.904 69.524,117.871 69.407,117.924 69.322 C 117.977 69.236,117.903 69.167,117.760 69.167 C 117.582 69.167,117.500 69.008,117.500 68.667 C 117.500 68.333,117.417 68.167,117.250 68.167 C 117.082 68.167,117.000 67.998,117.000 67.651 C 117.000 67.276,116.909 67.112,116.667 67.048 C 116.483 67.000,116.324 66.820,116.313 66.647 C 116.271 66.016,116.231 65.917,116.034 65.958 C 115.846 65.997,115.758 65.688,115.821 65.206 C 115.837 65.090,115.733 64.951,115.591 64.897 C 115.449 64.842,115.333 64.656,115.333 64.482 C 115.333 64.278,115.216 64.167,115.000 64.167 C 114.740 64.167,114.667 64.056,114.667 63.661 C 114.667 63.366,114.563 63.116,114.417 63.060 C 114.279 63.008,114.167 62.783,114.167 62.560 C 114.167 62.338,114.054 62.113,113.917 62.060 C 113.779 62.008,113.667 61.828,113.667 61.662 C 113.667 61.182,113.484 60.833,113.232 60.833 C 113.104 60.833,112.989 60.702,112.975 60.542 C 112.961 60.381,112.941 60.153,112.931 60.035 C 112.922 59.916,112.811 59.756,112.686 59.679 C 112.561 59.601,112.458 59.342,112.458 59.102 C 112.458 58.844,112.365 58.667,112.229 58.667 C 112.103 58.667,112.000 58.554,112.000 58.417 C 112.000 58.279,111.927 58.167,111.839 58.167 C 111.750 58.167,111.719 58.058,111.770 57.925 C 111.878 57.643,111.345 56.846,111.042 56.839 C 110.922 56.836,110.833 56.619,110.833 56.333 C 110.833 55.944,110.759 55.833,110.500 55.833 C 110.230 55.833,110.167 55.722,110.167 55.250 C 110.167 54.843,110.091 54.667,109.917 54.667 C 109.742 54.667,109.667 54.491,109.667 54.083 C 109.667 53.676,109.591 53.500,109.417 53.500 C 109.259 53.500,109.167 53.341,109.167 53.068 C 109.167 52.776,109.059 52.607,108.833 52.548 C 108.539 52.471,108.392 52.017,108.480 51.458 C 108.491 51.390,108.397 51.333,108.271 51.333 C 108.145 51.333,107.993 51.091,107.934 50.794 C 107.874 50.497,107.603 49.977,107.330 49.637 C 107.057 49.297,106.833 48.903,106.833 48.760 C 106.833 48.617,106.721 48.500,106.583 48.500 C 106.410 48.500,106.333 48.326,106.333 47.930 C 106.333 47.196,106.190 46.833,105.899 46.833 C 105.771 46.833,105.667 46.725,105.667 46.592 C 105.667 46.459,105.561 46.290,105.432 46.217 C 105.303 46.143,105.157 45.823,105.108 45.504 C 105.058 45.185,104.917 44.848,104.794 44.754 C 104.672 44.660,104.598 44.452,104.631 44.292 C 104.673 44.088,104.586 44.000,104.346 44.000 C 104.076 44.000,104.000 43.895,104.000 43.518 C 104.000 43.243,103.893 42.994,103.750 42.940 C 103.604 42.884,103.500 42.634,103.500 42.339 C 103.500 42.001,103.417 41.833,103.250 41.833 C 103.112 41.833,103.000 41.714,103.000 41.568 C 103.000 41.422,102.850 41.263,102.667 41.215 C 102.406 41.147,102.333 40.988,102.333 40.481 C 102.333 39.976,102.269 39.833,102.042 39.831 C 101.792 39.829,101.786 39.805,102.000 39.667 C 102.167 39.559,102.181 39.504,102.042 39.503 C 101.927 39.501,101.833 39.387,101.833 39.250 C 101.833 39.112,101.721 39.000,101.583 39.000 C 101.446 39.000,101.333 38.854,101.333 38.677 C 101.333 38.499,101.265 38.311,101.182 38.260 C 101.099 38.208,101.070 38.017,101.118 37.835 C 101.173 37.625,101.106 37.466,100.936 37.401 C 100.788 37.344,100.667 37.156,100.667 36.982 C 100.667 36.809,100.554 36.667,100.417 36.667 C 100.248 36.667,100.167 36.498,100.167 36.147 C 100.167 35.710,100.114 35.642,99.833 35.715 C 99.508 35.800,99.423 35.574,99.455 34.708 C 99.459 34.594,99.359 34.500,99.231 34.500 C 99.104 34.500,99.000 34.359,99.000 34.187 C 99.000 34.015,98.888 33.781,98.750 33.667 C 98.612 33.553,98.500 33.206,98.500 32.896 C 98.500 32.499,98.424 32.333,98.241 32.333 C 98.099 32.333,97.904 32.108,97.808 31.833 C 97.712 31.558,97.566 31.333,97.484 31.333 C 97.401 31.333,97.333 31.118,97.333 30.854 C 97.333 30.590,97.221 30.281,97.083 30.167 C 96.946 30.053,96.833 29.867,96.833 29.755 C 96.833 29.643,96.683 29.416,96.500 29.250 C 96.317 29.084,96.167 28.810,96.167 28.641 C 96.167 28.472,96.054 28.333,95.917 28.333 C 95.747 28.333,95.667 28.163,95.667 27.801 C 95.667 27.281,94.939 26.000,94.644 26.000 C 94.565 26.000,94.500 25.775,94.500 25.500 C 94.500 25.167,94.417 25.000,94.250 25.000 C 94.111 25.000,94.000 24.852,94.000 24.667 C 94.000 24.483,93.845 24.178,93.655 23.989 C 93.466 23.799,93.304 23.424,93.296 23.155 C 93.288 22.863,93.192 22.667,93.058 22.667 C 92.929 22.667,92.833 22.488,92.833 22.245 C 92.833 22.013,92.728 21.783,92.600 21.733 C 92.471 21.684,92.328 21.499,92.282 21.322 C 92.236 21.145,92.078 21.000,91.932 21.000 C 91.728 21.000,91.667 20.825,91.667 20.245 C 91.667 19.727,91.588 19.459,91.417 19.394 C 91.279 19.341,91.167 19.193,91.167 19.066 C 91.167 18.938,91.054 18.833,90.917 18.833 C 90.748 18.833,90.667 18.665,90.667 18.318 C 90.667 17.942,90.576 17.778,90.333 17.715 C 90.096 17.653,90.000 17.488,90.000 17.142 C 90.000 16.864,89.893 16.615,89.750 16.560 C 89.607 16.506,89.500 16.257,89.500 15.982 C 89.500 15.717,89.444 15.509,89.375 15.520 C 88.958 15.586,88.833 15.447,88.833 14.917 C 88.833 14.509,88.758 14.333,88.583 14.333 C 88.446 14.333,88.333 14.225,88.333 14.092 C 88.333 13.959,88.221 13.787,88.084 13.710 C 87.933 13.626,87.823 13.297,87.807 12.883 C 87.785 12.334,87.700 12.159,87.381 12.014 C 87.161 11.914,87.027 11.757,87.084 11.666 C 87.140 11.575,87.088 11.498,86.968 11.496 C 86.848 11.494,86.638 11.251,86.500 10.955 C 86.346 10.623,86.106 10.396,85.875 10.363 C 85.584 10.322,85.500 10.201,85.500 9.822 C 85.500 9.499,85.415 9.333,85.250 9.333 C 85.111 9.333,85.000 9.185,85.000 9.000 C 85.000 8.817,84.944 8.676,84.875 8.686 C 84.519 8.743,84.354 8.640,84.440 8.417 C 84.506 8.245,84.429 8.167,84.195 8.167 C 83.933 8.167,83.842 8.042,83.802 7.625 C 83.756 7.149,83.685 7.077,83.208 7.031 C 82.736 6.986,82.667 6.918,82.667 6.503 C 82.667 6.109,82.580 6.007,82.167 5.917 C 81.892 5.856,81.667 5.700,81.667 5.570 C 81.667 5.440,81.517 5.333,81.333 5.333 C 81.148 5.333,81.000 5.222,81.000 5.083 C 81.000 4.917,80.833 4.833,80.500 4.833 C 80.154 4.833,80.000 4.752,80.000 4.568 C 80.000 4.422,79.850 4.263,79.667 4.215 C 79.483 4.167,79.333 4.024,79.333 3.897 C 79.333 3.770,79.229 3.667,79.101 3.667 C 78.973 3.667,78.826 3.554,78.773 3.417 C 78.717 3.271,78.467 3.167,78.172 3.167 C 77.778 3.167,77.667 3.093,77.667 2.833 C 77.667 2.563,77.556 2.500,77.083 2.500 C 76.676 2.500,76.500 2.425,76.500 2.250 C 76.500 2.112,76.377 2.000,76.227 2.000 C 76.076 2.000,75.859 1.870,75.743 1.712 C 75.605 1.524,75.305 1.424,74.874 1.424 C 74.389 1.424,74.221 1.358,74.233 1.170 C 74.246 0.983,74.043 0.903,73.458 0.866 C 72.903 0.830,72.667 0.743,72.667 0.574 C 72.667 0.396,72.449 0.333,71.833 0.333 C 71.375 0.333,71.000 0.258,71.000 0.167 C 71.000 -0.055,57.050 -0.063,56.972 0.158 M65.333 37.496 C 65.333 37.585,65.109 37.774,64.836 37.915 C 64.562 38.057,64.291 38.359,64.234 38.586 C 64.177 38.814,64.042 39.000,63.934 39.000 C 63.826 39.000,63.720 39.244,63.699 39.542 C 63.677 39.840,63.549 40.167,63.413 40.268 C 63.278 40.370,63.167 40.605,63.167 40.791 C 63.167 40.988,63.028 41.164,62.833 41.215 C 62.650 41.263,62.500 41.414,62.500 41.550 C 62.500 41.686,62.392 41.839,62.260 41.890 C 62.102 41.950,62.024 42.220,62.030 42.681 C 62.037 43.161,61.955 43.429,61.770 43.532 C 61.621 43.615,61.500 43.835,61.500 44.020 C 61.500 44.405,61.099 44.876,60.921 44.700 C 60.855 44.636,60.818 44.696,60.837 44.833 C 60.928 45.469,60.828 45.821,60.583 45.727 C 60.390 45.653,60.333 45.766,60.333 46.232 C 60.333 46.655,60.259 46.833,60.083 46.833 C 59.909 46.833,59.833 47.009,59.833 47.417 C 59.833 47.895,59.771 48.000,59.490 48.000 C 59.262 48.000,59.156 48.099,59.175 48.292 C 59.230 48.830,59.168 49.000,58.917 49.000 C 58.779 49.000,58.667 49.123,58.667 49.273 C 58.667 49.424,58.549 49.632,58.406 49.737 C 58.262 49.842,58.102 50.244,58.050 50.631 C 57.992 51.068,57.870 51.333,57.728 51.333 C 57.579 51.333,57.500 51.534,57.500 51.917 C 57.500 52.313,57.423 52.500,57.261 52.500 C 57.112 52.500,57.001 52.706,56.969 53.042 C 56.935 53.389,56.827 53.583,56.667 53.584 C 56.529 53.584,56.407 53.697,56.394 53.834 C 56.382 53.971,56.363 54.215,56.353 54.375 C 56.342 54.535,56.221 54.667,56.083 54.667 C 55.909 54.667,55.833 54.843,55.833 55.250 C 55.833 55.657,55.758 55.833,55.583 55.833 C 55.419 55.833,55.333 55.998,55.333 56.314 C 55.333 56.654,55.236 56.820,55.000 56.882 C 54.817 56.930,54.667 57.080,54.667 57.217 C 54.667 57.353,54.554 57.508,54.417 57.560 C 54.245 57.626,54.167 57.894,54.167 58.411 C 54.167 58.967,54.102 59.167,53.920 59.167 C 53.649 59.167,53.404 59.876,53.577 60.157 C 53.675 60.315,53.464 60.407,53.125 60.353 C 53.056 60.342,53.000 60.558,53.000 60.833 C 53.000 61.167,52.917 61.333,52.750 61.333 C 52.577 61.333,52.500 61.507,52.500 61.897 C 52.500 62.321,52.417 62.483,52.167 62.548 C 51.924 62.612,51.833 62.776,51.833 63.151 C 51.833 63.498,51.752 63.667,51.583 63.667 C 51.409 63.667,51.333 63.843,51.333 64.250 C 51.333 64.657,51.258 64.833,51.083 64.833 C 50.946 64.833,50.833 64.942,50.833 65.075 C 50.833 65.208,50.715 65.383,50.571 65.463 C 50.427 65.544,50.267 65.923,50.216 66.305 C 50.158 66.737,50.036 67.000,49.895 67.000 C 49.745 67.000,49.667 67.201,49.667 67.583 C 49.667 67.991,49.591 68.167,49.417 68.167 C 49.244 68.167,49.167 68.341,49.167 68.731 C 49.167 69.167,49.100 69.291,48.875 69.273 C 48.662 69.256,48.569 69.395,48.531 69.792 C 48.499 70.127,48.388 70.333,48.239 70.333 C 48.077 70.333,48.000 70.521,48.000 70.917 C 48.000 71.292,47.921 71.500,47.778 71.500 C 47.656 71.500,47.543 71.612,47.528 71.750 C 47.512 71.887,47.487 72.123,47.472 72.273 C 47.457 72.423,47.307 72.582,47.139 72.626 C 46.971 72.670,46.833 72.839,46.833 73.002 C 46.833 73.164,46.721 73.341,46.583 73.394 C 46.420 73.456,46.333 73.716,46.333 74.142 C 46.333 74.650,46.261 74.813,46.006 74.880 C 45.790 74.936,45.685 75.099,45.696 75.358 C 45.726 76.030,45.675 76.159,45.417 76.060 C 45.223 75.986,45.167 76.100,45.167 76.566 C 45.167 76.989,45.093 77.167,44.917 77.167 C 44.752 77.167,44.667 77.331,44.667 77.647 C 44.667 77.967,44.568 78.154,44.372 78.205 C 44.190 78.252,44.062 78.465,44.037 78.760 C 44.016 79.023,43.886 79.301,43.749 79.377 C 43.586 79.468,43.500 79.774,43.500 80.258 C 43.500 80.752,43.428 81.000,43.285 81.000 C 43.166 81.000,43.054 81.224,43.033 81.503 C 43.012 81.779,42.853 82.147,42.681 82.319 C 42.191 82.809,42.182 88.682,42.672 89.172 C 42.852 89.352,43.000 89.612,43.000 89.750 C 43.000 89.887,43.112 90.000,43.250 90.000 C 43.417 90.000,43.500 90.167,43.500 90.500 C 43.500 90.806,43.579 90.984,43.704 90.958 C 43.817 90.935,43.934 91.085,43.966 91.292 C 44.003 91.531,44.139 91.667,44.345 91.667 C 44.522 91.667,44.667 91.779,44.667 91.917 C 44.667 92.054,44.779 92.167,44.917 92.167 C 45.054 92.167,45.167 92.274,45.167 92.405 C 45.167 92.537,45.310 92.690,45.485 92.745 C 45.659 92.801,45.845 92.956,45.896 93.090 C 45.957 93.248,46.226 93.333,46.667 93.333 C 47.115 93.333,47.376 93.418,47.440 93.583 C 47.507 93.759,47.782 93.833,48.367 93.833 C 49.058 93.833,49.213 93.890,49.285 94.167 C 49.372 94.499,49.512 94.500,83.101 94.500 C 116.650 94.500,116.832 94.498,117.039 94.167 C 117.192 93.921,117.427 93.833,117.931 93.833 C 118.374 93.833,118.750 93.717,118.996 93.503 C 119.205 93.322,119.446 93.217,119.532 93.270 C 119.757 93.409,120.333 92.836,120.333 92.474 C 120.333 92.305,120.446 92.167,120.583 92.167 C 120.721 92.167,120.833 92.054,120.833 91.917 C 120.833 91.778,120.981 91.667,121.167 91.667 C 121.410 91.667,121.500 91.556,121.500 91.255 C 121.500 90.958,121.569 90.870,121.750 90.940 C 121.938 91.012,122.000 90.912,122.000 90.536 C 122.000 90.245,122.105 89.996,122.250 89.940 C 122.426 89.872,122.500 89.597,122.500 89.005 C 122.500 88.400,122.564 88.167,122.732 88.167 C 123.064 88.167,123.167 87.788,123.167 86.564 C 123.167 85.763,123.230 85.465,123.417 85.394 C 123.627 85.313,123.667 84.785,123.667 82.066 L 123.667 78.833 123.260 78.833 C 123.036 78.833,122.806 78.757,122.748 78.664 C 122.691 78.571,122.575 78.537,122.490 78.589 C 122.406 78.641,122.375 78.586,122.420 78.467 C 122.489 78.289,117.406 78.257,94.294 78.289 C 69.241 78.324,66.077 78.356,66.029 78.581 C 65.950 78.955,65.138 78.917,65.201 78.542 C 65.238 78.322,65.117 78.237,64.708 78.198 L 64.167 78.146 64.167 77.073 C 64.167 76.238,64.221 76.000,64.413 76.000 C 64.657 76.000,65.333 74.736,65.333 74.280 C 65.333 74.148,65.446 73.947,65.583 73.833 C 65.721 73.719,65.833 73.523,65.833 73.396 C 65.833 73.270,65.983 73.167,66.167 73.167 C 66.437 73.167,66.500 73.056,66.500 72.583 C 66.500 72.159,66.573 72.000,66.768 72.000 C 66.944 72.000,67.001 71.910,66.934 71.735 C 66.866 71.559,66.942 71.440,67.156 71.384 C 67.345 71.335,67.525 71.098,67.587 70.816 C 67.645 70.551,67.799 70.333,67.928 70.333 C 68.057 70.333,68.152 70.202,68.138 70.042 C 68.088 69.439,68.174 69.167,68.417 69.167 C 68.554 69.167,68.667 69.054,68.667 68.917 C 68.667 68.779,68.817 68.517,69.000 68.333 C 69.185 68.148,69.333 67.778,69.333 67.500 C 69.333 67.167,69.417 67.000,69.583 67.000 C 69.722 67.000,69.833 66.852,69.833 66.667 C 69.833 66.481,69.944 66.333,70.083 66.333 C 70.248 66.333,70.333 66.169,70.333 65.853 C 70.333 65.507,70.430 65.347,70.679 65.282 C 70.888 65.227,71.013 65.071,70.993 64.887 C 70.936 64.337,70.997 64.167,71.250 64.167 C 71.387 64.167,71.500 64.062,71.500 63.934 C 71.500 63.807,71.620 63.656,71.767 63.600 C 71.920 63.541,71.994 63.391,71.939 63.249 C 71.887 63.112,71.916 63.000,72.005 63.000 C 72.094 63.000,72.167 62.897,72.167 62.770 C 72.167 62.644,72.279 62.447,72.417 62.333 C 72.554 62.219,72.667 61.948,72.667 61.730 C 72.667 61.488,72.765 61.333,72.917 61.333 C 73.082 61.333,73.167 61.168,73.167 60.845 C 73.167 60.502,73.266 60.324,73.500 60.250 C 73.683 60.192,73.833 60.037,73.833 59.905 C 73.833 59.774,73.946 59.667,74.083 59.667 C 74.272 59.667,74.333 59.463,74.333 58.833 C 74.333 58.204,74.394 58.000,74.583 58.000 C 74.721 58.000,74.833 57.896,74.833 57.769 C 74.833 57.643,74.983 57.500,75.167 57.452 C 75.350 57.404,75.500 57.253,75.500 57.117 C 75.500 56.980,75.612 56.826,75.750 56.773 C 75.921 56.707,76.000 56.439,76.000 55.922 C 76.000 55.362,76.065 55.167,76.250 55.167 C 76.387 55.167,76.500 55.092,76.500 55.000 C 76.500 54.908,76.646 54.688,76.824 54.510 C 77.114 54.219,77.147 53.940,77.147 51.760 C 77.147 49.530,77.121 49.321,76.824 49.161 C 76.615 49.050,76.500 48.813,76.500 48.494 C 76.500 48.166,76.416 48.000,76.250 48.000 C 76.075 48.000,76.000 47.824,76.000 47.417 C 76.000 47.009,75.925 46.833,75.750 46.833 C 75.612 46.833,75.500 46.726,75.500 46.595 C 75.500 46.463,75.350 46.308,75.167 46.250 C 74.983 46.192,74.833 46.037,74.833 45.905 C 74.833 45.774,74.721 45.667,74.583 45.667 C 74.413 45.667,74.333 45.494,74.331 45.125 C 74.328 44.443,74.111 44.081,73.810 44.255 C 73.685 44.328,73.636 44.328,73.701 44.256 C 73.766 44.184,73.669 44.003,73.485 43.854 C 73.302 43.705,73.139 43.415,73.124 43.208 C 73.108 43.002,73.018 42.830,72.923 42.827 C 72.828 42.823,72.535 42.373,72.272 41.827 C 72.009 41.280,71.728 40.833,71.647 40.833 C 71.566 40.833,71.500 40.683,71.500 40.500 C 71.500 40.315,71.389 40.167,71.250 40.167 C 71.111 40.167,71.000 40.019,71.000 39.833 C 71.000 39.650,70.944 39.509,70.875 39.520 C 70.491 39.580,70.333 39.456,70.333 39.092 C 70.333 38.679,69.689 37.833,69.374 37.833 C 69.279 37.833,69.159 37.721,69.106 37.583 C 68.994 37.290,65.333 37.205,65.333 37.496 " stroke="none" fill="#f4c434" fill-rule="evenodd"></path><path id="path1" d="M269.500 22.417 C 269.500 22.554,269.387 22.667,269.250 22.667 C 269.030 22.667,269.000 24.454,269.000 37.755 C 269.000 51.014,269.030 52.855,269.250 52.940 C 269.434 53.010,269.500 53.300,269.500 54.033 C 269.500 54.891,269.547 55.043,269.833 55.118 C 270.084 55.184,270.167 55.346,270.167 55.769 C 270.167 56.160,270.244 56.333,270.417 56.333 C 270.554 56.333,270.667 56.446,270.667 56.583 C 270.667 56.722,270.815 56.833,271.000 56.833 C 271.270 56.833,271.333 56.944,271.333 57.417 C 271.333 57.824,271.409 58.000,271.583 58.000 C 271.721 58.000,271.833 58.112,271.833 58.250 C 271.833 58.425,272.009 58.500,272.417 58.500 C 272.889 58.500,273.000 58.563,273.000 58.833 C 273.000 59.019,273.111 59.167,273.250 59.167 C 273.387 59.167,273.500 59.279,273.500 59.417 C 273.500 59.606,273.704 59.667,274.333 59.667 C 274.935 59.667,275.167 59.731,275.167 59.899 C 275.167 60.286,275.569 60.333,278.833 60.333 C 282.079 60.333,282.500 60.285,282.500 59.909 C 282.500 59.781,282.728 59.666,283.042 59.636 L 283.583 59.583 283.629 57.125 C 283.668 55.092,283.718 54.667,283.921 54.667 C 284.056 54.667,284.167 54.779,284.167 54.917 C 284.167 55.054,284.279 55.167,284.417 55.167 C 284.554 55.167,284.667 55.286,284.667 55.432 C 284.667 55.578,284.817 55.737,285.000 55.785 C 285.236 55.847,285.333 56.012,285.333 56.353 C 285.333 56.669,285.419 56.833,285.583 56.833 C 285.721 56.833,285.833 56.938,285.833 57.066 C 285.833 57.320,286.184 57.500,286.680 57.500 C 286.856 57.500,287.000 57.612,287.000 57.750 C 287.000 57.887,287.112 58.000,287.250 58.000 C 287.387 58.000,287.500 58.112,287.500 58.250 C 287.500 58.425,287.676 58.500,288.083 58.500 C 288.556 58.500,288.667 58.563,288.667 58.833 C 288.667 59.103,288.778 59.167,289.250 59.167 C 289.657 59.167,289.833 59.242,289.833 59.417 C 289.833 59.605,290.035 59.667,290.647 59.667 C 291.321 59.667,291.476 59.724,291.548 60.000 C 291.702 60.589,298.667 60.490,298.667 59.899 C 298.667 59.731,298.899 59.667,299.500 59.667 C 300.100 59.667,300.333 59.602,300.333 59.435 C 300.333 59.294,300.562 59.176,300.917 59.135 C 301.392 59.079,301.500 59.122,301.500 59.367 C 301.500 59.549,301.623 59.667,301.814 59.667 C 301.988 59.667,302.167 59.816,302.215 60.000 C 302.299 60.320,302.435 60.333,305.693 60.317 C 309.608 60.298,309.896 60.251,309.969 59.618 C 309.999 59.362,310.125 59.167,310.261 59.167 C 310.467 59.167,310.500 57.289,310.500 45.750 C 310.500 33.935,310.470 32.333,310.250 32.333 C 310.111 32.333,310.000 32.185,310.000 32.000 C 310.000 31.675,309.889 31.667,305.750 31.667 C 302.228 31.667,301.500 31.706,301.500 31.899 C 301.500 32.027,301.387 32.174,301.250 32.227 C 301.112 32.280,301.000 32.438,301.000 32.578 C 301.000 32.722,300.855 32.833,300.667 32.833 C 300.444 32.833,300.333 32.722,300.333 32.500 C 300.333 32.243,300.222 32.167,299.851 32.167 C 299.576 32.167,299.328 32.059,299.273 31.917 C 299.191 31.704,298.560 31.667,295.005 31.667 C 291.408 31.667,290.833 31.701,290.833 31.917 C 290.833 32.090,290.659 32.167,290.264 32.167 C 289.529 32.167,289.167 32.310,289.167 32.601 C 289.167 32.748,288.983 32.833,288.667 32.833 C 288.333 32.833,288.167 32.917,288.167 33.083 C 288.167 33.222,288.019 33.333,287.833 33.333 C 287.650 33.333,287.500 33.440,287.500 33.570 C 287.500 33.700,287.275 33.856,287.000 33.917 C 286.725 33.977,286.500 34.133,286.500 34.263 C 286.500 34.393,286.350 34.500,286.167 34.500 C 285.981 34.500,285.833 34.611,285.833 34.750 C 285.833 34.887,285.721 35.000,285.583 35.000 C 285.446 35.000,285.333 35.141,285.333 35.314 C 285.333 35.488,285.184 35.667,285.000 35.715 C 284.775 35.774,284.667 35.942,284.667 36.234 C 284.667 36.508,284.575 36.667,284.417 36.667 C 284.278 36.667,284.167 36.815,284.167 37.000 C 284.167 37.185,284.056 37.333,283.917 37.333 C 283.751 37.333,283.667 37.499,283.667 37.822 C 283.667 38.164,283.567 38.343,283.333 38.417 C 283.068 38.501,283.000 38.669,283.000 39.243 C 283.000 39.730,282.919 39.995,282.750 40.060 C 282.563 40.132,282.500 40.431,282.500 41.245 C 282.500 42.064,282.443 42.333,282.268 42.333 C 281.882 42.333,281.833 42.735,281.836 45.889 C 281.838 49.107,281.902 49.667,282.269 49.667 C 282.442 49.667,282.500 49.939,282.500 50.750 L 282.500 51.833 280.833 51.833 C 279.463 51.833,279.167 51.789,279.167 51.583 C 279.167 51.444,279.019 51.333,278.833 51.333 C 278.503 51.333,278.500 51.222,278.500 37.000 C 278.500 24.370,278.470 22.667,278.250 22.667 C 278.112 22.667,278.000 22.554,278.000 22.417 C 278.000 22.201,277.417 22.167,273.750 22.167 C 270.083 22.167,269.500 22.201,269.500 22.417 M143.894 31.917 C 143.835 32.069,143.583 32.167,143.246 32.167 C 142.529 32.167,142.167 32.312,142.167 32.601 C 142.167 32.748,141.983 32.833,141.667 32.833 C 141.333 32.833,141.167 32.917,141.167 33.083 C 141.167 33.222,141.019 33.333,140.833 33.333 C 140.650 33.333,140.500 33.440,140.500 33.570 C 140.500 33.700,140.275 33.856,140.000 33.917 C 139.725 33.977,139.500 34.133,139.500 34.263 C 139.500 34.393,139.406 34.501,139.292 34.503 C 139.038 34.506,138.333 35.226,138.333 35.482 C 138.333 35.583,138.227 35.667,138.097 35.667 C 137.966 35.667,137.810 35.892,137.750 36.167 C 137.690 36.442,137.534 36.667,137.403 36.667 C 137.273 36.667,137.167 36.817,137.167 37.000 C 137.167 37.185,137.056 37.333,136.917 37.333 C 136.744 37.333,136.667 37.507,136.667 37.897 C 136.667 38.321,136.584 38.483,136.333 38.548 C 136.068 38.618,136.000 38.776,136.000 39.323 C 136.000 39.780,135.916 40.043,135.750 40.106 C 135.564 40.178,135.500 40.474,135.500 41.268 C 135.500 42.104,135.446 42.333,135.250 42.333 C 135.036 42.333,135.000 42.843,135.000 45.922 C 135.000 48.958,135.038 49.525,135.250 49.606 C 135.436 49.678,135.500 49.974,135.500 50.768 C 135.500 51.604,135.554 51.833,135.750 51.833 C 135.925 51.833,136.000 52.009,136.000 52.417 C 136.000 52.889,136.063 53.000,136.333 53.000 C 136.593 53.000,136.667 53.111,136.667 53.505 C 136.667 53.801,136.771 54.050,136.917 54.106 C 137.059 54.161,137.167 54.410,137.167 54.684 C 137.167 54.984,137.254 55.167,137.397 55.167 C 137.524 55.167,137.667 55.317,137.715 55.500 C 137.763 55.683,137.922 55.833,138.068 55.833 C 138.252 55.833,138.333 55.987,138.333 56.333 C 138.333 56.667,138.417 56.833,138.583 56.833 C 138.721 56.833,138.833 56.938,138.833 57.066 C 138.833 57.320,139.184 57.500,139.680 57.500 C 139.856 57.500,140.000 57.612,140.000 57.750 C 140.000 57.887,140.112 58.000,140.250 58.000 C 140.387 58.000,140.500 58.112,140.500 58.250 C 140.500 58.425,140.676 58.500,141.083 58.500 C 141.556 58.500,141.667 58.563,141.667 58.833 C 141.667 59.103,141.778 59.167,142.250 59.167 C 142.657 59.167,142.833 59.242,142.833 59.417 C 142.833 59.605,143.035 59.667,143.647 59.667 C 144.321 59.667,144.476 59.724,144.548 60.000 C 144.702 60.589,151.667 60.490,151.667 59.899 C 151.667 59.732,151.896 59.667,152.482 59.667 C 153.020 59.667,153.328 59.589,153.386 59.438 C 153.531 59.058,154.500 58.993,154.500 59.362 C 154.500 59.549,154.621 59.667,154.814 59.667 C 154.991 59.667,155.167 59.817,155.218 60.012 C 155.346 60.503,162.546 60.453,162.907 59.958 C 163.024 59.798,163.206 59.667,163.310 59.667 C 163.636 59.667,163.576 32.398,163.250 32.273 C 163.112 32.220,163.000 32.062,163.000 31.922 C 163.000 31.699,162.455 31.667,158.750 31.667 C 155.228 31.667,154.500 31.706,154.500 31.899 C 154.500 32.027,154.387 32.174,154.250 32.227 C 154.112 32.280,154.000 32.438,154.000 32.578 C 154.000 32.953,153.554 32.889,153.452 32.500 C 153.389 32.261,153.224 32.167,152.867 32.167 C 152.578 32.167,152.329 32.062,152.273 31.917 C 152.191 31.704,151.569 31.667,148.083 31.667 C 144.598 31.667,143.975 31.704,143.894 31.917 M167.500 31.897 C 167.500 32.024,167.350 32.167,167.167 32.215 C 166.835 32.302,166.615 67.586,166.938 68.792 L 167.039 69.167 171.436 69.167 L 175.833 69.167 175.833 64.117 L 175.833 59.067 176.417 59.135 C 176.771 59.176,177.000 59.294,177.000 59.435 C 177.000 59.589,177.196 59.667,177.583 59.667 C 177.967 59.667,178.167 59.745,178.167 59.896 C 178.167 60.246,178.950 60.333,182.083 60.333 C 185.217 60.333,186.000 60.246,186.000 59.896 C 186.000 59.732,186.237 59.667,186.833 59.667 C 187.463 59.667,187.667 59.606,187.667 59.417 C 187.667 59.248,187.835 59.167,188.182 59.167 C 188.558 59.167,188.722 59.076,188.785 58.833 C 188.833 58.650,188.976 58.500,189.103 58.500 C 189.230 58.500,189.333 58.387,189.333 58.250 C 189.333 58.083,189.501 58.000,189.839 58.000 C 190.134 58.000,190.384 57.896,190.440 57.750 C 190.492 57.612,190.640 57.500,190.768 57.500 C 190.896 57.500,191.000 57.350,191.000 57.167 C 191.000 56.981,191.111 56.833,191.250 56.833 C 191.387 56.833,191.500 56.721,191.500 56.583 C 191.500 56.444,191.648 56.333,191.833 56.333 C 192.022 56.333,192.167 56.222,192.167 56.078 C 192.167 55.938,192.279 55.780,192.417 55.727 C 192.556 55.674,192.667 55.426,192.667 55.168 C 192.667 54.846,192.768 54.679,193.000 54.618 C 193.243 54.555,193.333 54.391,193.333 54.016 C 193.333 53.668,193.415 53.500,193.583 53.500 C 193.758 53.500,193.833 53.324,193.833 52.917 C 193.833 52.509,193.909 52.333,194.083 52.333 C 194.272 52.333,194.333 52.130,194.333 51.500 C 194.333 50.778,194.378 50.667,194.667 50.667 C 194.992 50.667,195.000 50.556,195.000 45.984 C 195.000 41.442,194.990 41.300,194.667 41.215 C 194.391 41.143,194.333 40.988,194.333 40.314 C 194.333 39.702,194.271 39.500,194.083 39.500 C 193.898 39.500,193.833 39.305,193.833 38.745 C 193.833 38.227,193.755 37.959,193.583 37.894 C 193.446 37.841,193.333 37.693,193.333 37.566 C 193.333 37.438,193.183 37.333,193.000 37.333 C 192.730 37.333,192.667 37.222,192.667 36.750 C 192.667 36.343,192.591 36.167,192.417 36.167 C 192.279 36.167,192.167 36.054,192.167 35.917 C 192.167 35.778,192.019 35.667,191.833 35.667 C 191.611 35.667,191.500 35.556,191.500 35.333 C 191.500 35.148,191.389 35.000,191.250 35.000 C 191.112 35.000,191.000 34.887,191.000 34.750 C 191.000 34.612,190.887 34.500,190.750 34.500 C 190.612 34.500,190.500 34.393,190.500 34.261 C 190.500 34.130,190.357 33.977,190.182 33.922 C 190.007 33.866,189.822 33.711,189.771 33.577 C 189.719 33.443,189.487 33.333,189.255 33.333 C 188.991 33.333,188.833 33.240,188.833 33.083 C 188.833 32.910,188.660 32.833,188.269 32.833 C 187.846 32.833,187.684 32.750,187.618 32.500 C 187.556 32.261,187.391 32.167,187.033 32.167 C 186.745 32.167,186.495 32.062,186.440 31.917 C 186.358 31.704,185.736 31.667,182.255 31.667 C 178.732 31.667,178.167 31.701,178.167 31.917 C 178.167 32.103,177.970 32.167,177.401 32.167 C 176.776 32.167,176.620 32.228,176.548 32.500 C 176.447 32.889,175.833 32.956,175.833 32.578 C 175.833 32.438,175.721 32.280,175.583 32.227 C 175.446 32.174,175.333 32.027,175.333 31.899 C 175.333 31.707,174.653 31.667,171.417 31.667 C 168.193 31.667,167.500 31.707,167.500 31.897 M197.167 32.000 C 197.167 32.185,197.056 32.333,196.917 32.333 C 196.696 32.333,196.667 33.963,196.667 46.000 C 196.667 56.117,196.716 59.667,196.857 59.667 C 196.961 59.667,197.143 59.798,197.260 59.958 C 197.452 60.222,197.853 60.250,201.416 60.250 C 204.980 60.250,205.381 60.222,205.573 59.958 C 205.691 59.798,205.872 59.667,205.977 59.667 C 206.116 59.667,206.167 57.585,206.167 51.833 C 206.167 44.981,206.198 44.000,206.417 44.000 C 206.606 44.000,206.667 43.796,206.667 43.167 C 206.667 42.444,206.711 42.333,207.000 42.333 C 207.183 42.333,207.333 42.229,207.333 42.101 C 207.333 41.973,207.446 41.826,207.583 41.773 C 207.721 41.720,207.833 41.562,207.833 41.422 C 207.833 41.282,207.946 41.167,208.083 41.167 C 208.221 41.167,208.333 41.054,208.333 40.917 C 208.333 40.720,208.567 40.667,209.432 40.667 C 210.391 40.667,210.542 40.624,210.618 40.333 C 210.666 40.150,210.801 40.000,210.917 40.000 C 211.033 40.000,211.167 40.150,211.215 40.333 C 211.278 40.573,211.442 40.667,211.800 40.667 C 212.089 40.667,212.338 40.772,212.394 40.917 C 212.446 41.054,212.604 41.167,212.745 41.167 C 212.885 41.167,213.000 41.279,213.000 41.417 C 213.000 41.554,213.112 41.667,213.250 41.667 C 213.389 41.667,213.500 41.815,213.500 42.000 C 213.500 42.185,213.611 42.333,213.750 42.333 C 213.947 42.333,214.000 42.565,214.000 43.417 C 214.000 44.389,214.034 44.500,214.333 44.500 C 214.662 44.500,214.667 44.611,214.667 52.083 C 214.667 58.713,214.698 59.667,214.917 59.667 C 215.054 59.667,215.167 59.771,215.167 59.899 C 215.167 60.289,215.570 60.333,219.083 60.333 C 222.597 60.333,223.000 60.289,223.000 59.899 C 223.000 59.771,223.112 59.667,223.250 59.667 C 223.469 59.667,223.500 58.435,223.500 49.583 C 223.500 40.731,223.469 39.500,223.250 39.500 C 223.061 39.500,223.000 39.296,223.000 38.667 C 223.000 38.037,222.939 37.833,222.750 37.833 C 222.582 37.833,222.500 37.665,222.500 37.318 C 222.500 36.942,222.409 36.778,222.167 36.715 C 221.931 36.653,221.833 36.488,221.833 36.147 C 221.833 35.831,221.748 35.667,221.583 35.667 C 221.444 35.667,221.333 35.519,221.333 35.333 C 221.333 35.148,221.222 35.000,221.083 35.000 C 220.946 35.000,220.833 34.887,220.833 34.750 C 220.833 34.611,220.685 34.500,220.500 34.500 C 220.278 34.500,220.167 34.389,220.167 34.167 C 220.167 33.981,220.056 33.833,219.917 33.833 C 219.779 33.833,219.667 33.721,219.667 33.583 C 219.667 33.444,219.519 33.333,219.333 33.333 C 219.148 33.333,219.000 33.222,219.000 33.083 C 219.000 32.919,218.835 32.833,218.519 32.833 C 218.179 32.833,218.013 32.736,217.952 32.500 C 217.888 32.257,217.724 32.167,217.349 32.167 C 217.002 32.167,216.833 32.085,216.833 31.917 C 216.833 31.701,216.259 31.667,212.667 31.667 C 209.074 31.667,208.500 31.701,208.500 31.917 C 208.500 32.078,208.337 32.167,208.042 32.169 C 207.328 32.172,206.833 32.350,206.833 32.603 C 206.833 32.730,206.683 32.833,206.500 32.833 C 206.315 32.833,206.167 32.944,206.167 33.083 C 206.167 33.221,206.054 33.333,205.917 33.333 C 205.743 33.333,205.667 33.159,205.667 32.764 C 205.667 31.608,205.899 31.667,201.316 31.667 C 197.278 31.667,197.167 31.676,197.167 32.000 M234.217 31.891 C 234.143 32.015,233.784 32.163,233.417 32.221 C 233.051 32.279,232.668 32.440,232.566 32.580 C 232.463 32.719,232.182 32.833,231.940 32.833 C 231.660 32.833,231.500 32.924,231.500 33.083 C 231.500 33.222,231.352 33.333,231.167 33.333 C 230.983 33.333,230.833 33.440,230.833 33.570 C 230.833 33.700,230.608 33.856,230.333 33.917 C 230.058 33.977,229.833 34.133,229.833 34.263 C 229.833 34.393,229.740 34.501,229.625 34.503 C 229.266 34.508,228.667 35.277,228.667 35.732 C 228.667 36.056,228.581 36.167,228.333 36.167 C 228.148 36.167,228.000 36.278,228.000 36.417 C 228.000 36.554,227.887 36.667,227.750 36.667 C 227.575 36.667,227.500 36.843,227.500 37.250 C 227.500 37.657,227.425 37.833,227.250 37.833 C 227.075 37.833,227.000 38.009,227.000 38.417 C 227.000 38.889,226.937 39.000,226.667 39.000 C 226.397 39.000,226.333 39.111,226.333 39.583 C 226.333 39.991,226.258 40.167,226.083 40.167 C 225.882 40.167,225.833 40.426,225.833 41.500 C 225.833 42.574,225.785 42.833,225.583 42.833 C 225.370 42.833,225.333 43.287,225.333 45.917 C 225.333 48.546,225.370 49.000,225.583 49.000 C 225.786 49.000,225.833 49.269,225.833 50.417 C 225.833 51.565,225.881 51.833,226.083 51.833 C 226.258 51.833,226.333 52.009,226.333 52.417 C 226.333 52.889,226.397 53.000,226.667 53.000 C 226.927 53.000,227.000 53.111,227.000 53.505 C 227.000 53.801,227.104 54.050,227.250 54.106 C 227.393 54.161,227.500 54.410,227.500 54.684 C 227.500 54.984,227.587 55.167,227.731 55.167 C 227.857 55.167,228.000 55.317,228.048 55.500 C 228.096 55.683,228.255 55.833,228.401 55.833 C 228.547 55.833,228.667 55.946,228.667 56.083 C 228.667 56.221,228.779 56.333,228.917 56.333 C 229.054 56.333,229.167 56.446,229.167 56.583 C 229.167 56.721,229.270 56.833,229.397 56.833 C 229.524 56.833,229.667 56.983,229.715 57.167 C 229.763 57.350,229.922 57.500,230.068 57.500 C 230.214 57.500,230.333 57.612,230.333 57.750 C 230.333 57.887,230.446 58.000,230.583 58.000 C 230.721 58.000,230.833 58.112,230.833 58.250 C 230.833 58.425,231.009 58.500,231.417 58.500 C 231.889 58.500,232.000 58.563,232.000 58.833 C 232.000 59.103,232.111 59.167,232.583 59.167 C 232.991 59.167,233.167 59.242,233.167 59.417 C 233.167 59.605,233.368 59.667,233.981 59.667 C 234.654 59.667,234.809 59.724,234.882 60.000 C 234.965 60.320,235.109 60.333,238.417 60.333 C 241.724 60.333,241.868 60.320,241.952 60.000 C 242.024 59.724,242.179 59.667,242.853 59.667 C 243.465 59.667,243.667 59.605,243.667 59.417 C 243.667 59.242,243.843 59.167,244.250 59.167 C 244.657 59.167,244.833 59.242,244.833 59.417 C 244.833 59.556,244.981 59.667,245.167 59.667 C 245.350 59.667,245.500 59.771,245.500 59.899 C 245.500 60.286,245.902 60.333,249.159 60.333 C 252.545 60.333,253.333 60.251,253.333 59.896 C 253.333 59.770,253.446 59.667,253.583 59.667 C 253.804 59.667,253.833 58.036,253.833 45.995 C 253.833 33.996,253.803 32.311,253.583 32.227 C 253.446 32.174,253.333 32.027,253.333 31.899 C 253.333 31.707,252.626 31.667,249.227 31.667 L 245.122 31.667 244.727 32.092 C 244.511 32.326,244.333 32.588,244.333 32.675 C 244.333 32.976,243.855 32.832,243.750 32.500 C 243.677 32.270,243.498 32.167,243.173 32.167 C 242.908 32.167,242.660 32.057,242.606 31.917 C 242.471 31.564,234.425 31.539,234.217 31.891 M314.500 31.897 C 314.500 32.024,314.350 32.167,314.167 32.215 C 313.836 32.301,313.833 32.442,313.833 50.734 L 313.833 69.167 318.333 69.167 L 322.833 69.167 322.833 64.167 L 322.833 59.167 323.417 59.167 C 323.824 59.167,324.000 59.242,324.000 59.417 C 324.000 59.591,324.176 59.667,324.583 59.667 C 324.967 59.667,325.167 59.745,325.167 59.896 C 325.167 60.246,325.950 60.333,329.083 60.333 C 332.217 60.333,333.000 60.246,333.000 59.896 C 333.000 59.735,333.226 59.667,333.755 59.667 C 334.273 59.667,334.541 59.588,334.606 59.417 C 334.659 59.279,334.889 59.167,335.117 59.167 C 335.391 59.167,335.561 59.054,335.618 58.833 C 335.667 58.649,335.846 58.500,336.019 58.500 C 336.192 58.500,336.333 58.387,336.333 58.250 C 336.333 58.096,336.490 58.000,336.741 58.000 C 337.166 58.000,338.000 57.352,338.000 57.023 C 338.000 56.918,338.112 56.833,338.250 56.833 C 338.387 56.833,338.500 56.721,338.500 56.583 C 338.500 56.446,338.585 56.333,338.689 56.333 C 339.019 56.333,339.667 55.499,339.667 55.075 C 339.667 54.823,339.763 54.667,339.917 54.667 C 340.091 54.667,340.167 54.491,340.167 54.083 C 340.167 53.611,340.230 53.500,340.500 53.500 C 340.770 53.500,340.833 53.389,340.833 52.917 C 340.833 52.509,340.909 52.333,341.083 52.333 C 341.271 52.333,341.333 52.132,341.333 51.519 C 341.333 50.846,341.391 50.691,341.667 50.618 C 341.990 50.534,342.000 50.391,342.000 45.917 C 342.000 41.442,341.990 41.299,341.667 41.215 C 341.391 41.143,341.333 40.988,341.333 40.314 C 341.333 39.702,341.271 39.500,341.083 39.500 C 340.915 39.500,340.833 39.332,340.833 38.984 C 340.833 38.609,340.743 38.445,340.500 38.382 C 340.264 38.320,340.167 38.154,340.167 37.814 C 340.167 37.498,340.081 37.333,339.917 37.333 C 339.742 37.333,339.667 37.157,339.667 36.750 C 339.667 36.343,339.591 36.167,339.417 36.167 C 339.279 36.167,339.167 36.054,339.167 35.917 C 339.167 35.778,339.019 35.667,338.833 35.667 C 338.611 35.667,338.500 35.556,338.500 35.333 C 338.500 35.148,338.389 35.000,338.250 35.000 C 338.112 35.000,338.000 34.887,338.000 34.750 C 338.000 34.612,337.887 34.500,337.750 34.500 C 337.612 34.500,337.500 34.387,337.500 34.250 C 337.500 34.112,337.390 34.000,337.256 34.000 C 337.122 34.000,336.931 33.850,336.833 33.667 C 336.732 33.478,336.484 33.333,336.262 33.333 C 336.046 33.333,335.826 33.221,335.773 33.083 C 335.718 32.940,335.469 32.833,335.191 32.833 C 334.846 32.833,334.680 32.737,334.618 32.500 C 334.556 32.261,334.391 32.167,334.033 32.167 C 333.745 32.167,333.495 32.062,333.440 31.917 C 333.358 31.704,332.736 31.667,329.255 31.667 C 325.732 31.667,325.167 31.701,325.167 31.917 C 325.167 32.103,324.970 32.167,324.401 32.167 C 323.776 32.167,323.620 32.228,323.548 32.500 C 323.450 32.875,322.833 32.962,322.833 32.601 C 322.833 32.473,322.721 32.326,322.583 32.273 C 322.446 32.220,322.333 32.062,322.333 31.922 C 322.333 31.700,321.823 31.667,318.417 31.667 C 315.193 31.667,314.500 31.707,314.500 31.897 M344.167 31.899 C 344.167 32.027,344.054 32.174,343.917 32.227 C 343.697 32.311,343.667 34.496,343.667 50.495 C 343.667 66.536,343.696 68.667,343.917 68.667 C 344.054 68.667,344.167 68.779,344.167 68.917 C 344.167 69.132,344.750 69.167,348.417 69.167 C 352.083 69.167,352.667 69.132,352.667 68.917 C 352.667 68.779,352.779 68.667,352.917 68.667 C 353.133 68.667,353.167 68.028,353.167 63.917 C 353.167 59.762,353.199 59.167,353.422 59.167 C 353.562 59.167,353.720 59.279,353.773 59.417 C 353.836 59.582,354.097 59.667,354.541 59.667 C 354.989 59.667,355.284 59.764,355.426 59.958 C 355.834 60.518,362.667 60.475,362.667 59.913 C 362.667 59.728,362.875 59.667,363.500 59.667 C 364.130 59.667,364.333 59.606,364.333 59.417 C 364.333 59.242,364.509 59.167,364.917 59.167 C 365.389 59.167,365.500 59.103,365.500 58.833 C 365.500 58.563,365.611 58.500,366.083 58.500 C 366.491 58.500,366.667 58.425,366.667 58.250 C 366.667 58.112,366.779 58.000,366.917 58.000 C 367.054 58.000,367.167 57.887,367.167 57.750 C 367.167 57.612,367.279 57.500,367.417 57.500 C 367.556 57.500,367.667 57.352,367.667 57.167 C 367.667 56.944,367.778 56.833,368.000 56.833 C 368.185 56.833,368.333 56.722,368.333 56.583 C 368.333 56.446,368.446 56.333,368.583 56.333 C 368.721 56.333,368.833 56.230,368.833 56.103 C 368.833 55.976,368.983 55.833,369.167 55.785 C 369.350 55.737,369.500 55.578,369.500 55.432 C 369.500 55.286,369.613 55.167,369.750 55.167 C 369.915 55.167,370.000 55.002,370.000 54.684 C 370.000 54.410,370.107 54.161,370.250 54.106 C 370.393 54.051,370.500 53.803,370.500 53.525 C 370.500 53.179,370.596 53.014,370.833 52.952 C 371.076 52.888,371.167 52.724,371.167 52.349 C 371.167 52.002,371.248 51.833,371.417 51.833 C 371.613 51.833,371.667 51.601,371.667 50.745 C 371.667 49.931,371.730 49.632,371.917 49.560 C 372.128 49.479,372.167 48.914,372.167 45.899 C 372.167 42.841,372.131 42.333,371.917 42.333 C 371.721 42.333,371.667 42.104,371.667 41.268 C 371.667 40.474,371.603 40.178,371.417 40.106 C 371.273 40.051,371.167 39.802,371.167 39.519 C 371.167 38.859,371.013 38.500,370.732 38.500 C 370.578 38.500,370.500 38.304,370.500 37.917 C 370.500 37.509,370.425 37.333,370.250 37.333 C 370.111 37.333,370.000 37.185,370.000 37.000 C 370.000 36.817,369.896 36.667,369.768 36.667 C 369.640 36.667,369.492 36.554,369.440 36.417 C 369.387 36.279,369.229 36.167,369.089 36.167 C 368.925 36.167,368.833 36.011,368.833 35.732 C 368.833 35.277,368.234 34.508,367.875 34.503 C 367.760 34.501,367.667 34.393,367.667 34.263 C 367.667 34.133,367.442 33.977,367.167 33.917 C 366.892 33.856,366.667 33.700,366.667 33.570 C 366.667 33.440,366.517 33.333,366.333 33.333 C 366.148 33.333,366.000 33.222,366.000 33.083 C 366.000 32.922,365.838 32.833,365.540 32.833 C 365.261 32.833,364.998 32.703,364.872 32.500 C 364.714 32.247,364.483 32.167,363.915 32.167 C 363.361 32.167,363.167 32.102,363.167 31.917 C 363.167 31.701,362.593 31.667,359.000 31.667 C 355.407 31.667,354.833 31.701,354.833 31.917 C 354.833 32.085,354.665 32.167,354.318 32.167 C 353.942 32.167,353.778 32.257,353.715 32.500 C 353.654 32.732,353.488 32.833,353.167 32.833 C 352.846 32.833,352.679 32.732,352.618 32.500 C 352.570 32.317,352.412 32.167,352.266 32.167 C 352.120 32.167,352.000 32.054,352.000 31.917 C 352.000 31.702,351.454 31.667,348.083 31.667 C 344.847 31.667,344.167 31.707,344.167 31.899 M374.000 41.167 C 374.000 49.500,374.031 50.667,374.250 50.667 C 374.439 50.667,374.500 50.870,374.500 51.500 C 374.500 52.130,374.561 52.333,374.750 52.333 C 374.936 52.333,375.000 52.530,375.000 53.099 C 375.000 53.724,375.061 53.880,375.333 53.952 C 375.518 54.000,375.667 54.179,375.667 54.353 C 375.667 54.525,375.779 54.667,375.917 54.667 C 376.054 54.667,376.167 54.779,376.167 54.917 C 376.167 55.054,376.270 55.167,376.397 55.167 C 376.524 55.167,376.667 55.317,376.715 55.500 C 376.763 55.683,376.922 55.833,377.068 55.833 C 377.214 55.833,377.333 55.946,377.333 56.083 C 377.333 56.221,377.446 56.333,377.583 56.333 C 377.721 56.333,377.833 56.446,377.833 56.583 C 377.833 56.721,377.941 56.833,378.072 56.833 C 378.203 56.833,378.358 56.983,378.417 57.167 C 378.491 57.400,378.669 57.500,379.011 57.500 C 379.335 57.500,379.500 57.585,379.500 57.750 C 379.500 57.939,379.704 58.000,380.333 58.000 C 380.963 58.000,381.167 58.061,381.167 58.250 C 381.167 58.465,381.713 58.500,385.083 58.500 C 388.454 58.500,389.000 58.465,389.000 58.250 C 389.000 58.075,389.176 58.000,389.583 58.000 C 389.991 58.000,390.167 57.925,390.167 57.750 C 390.167 57.612,390.279 57.500,390.417 57.500 C 390.581 57.500,390.667 57.665,390.667 57.982 C 390.667 58.257,390.559 58.506,390.417 58.560 C 390.279 58.613,390.167 58.771,390.167 58.911 C 390.167 59.052,390.054 59.167,389.917 59.167 C 389.779 59.167,389.667 59.279,389.667 59.417 C 389.667 59.554,389.559 59.667,389.428 59.667 C 389.297 59.667,389.142 59.817,389.083 60.000 C 389.025 60.183,388.870 60.333,388.739 60.333 C 388.607 60.333,388.500 60.446,388.500 60.583 C 388.500 60.772,388.296 60.833,387.667 60.833 C 387.037 60.833,386.833 60.894,386.833 61.083 C 386.833 61.286,386.565 61.333,385.417 61.333 C 384.269 61.333,384.000 61.286,384.000 61.083 C 384.000 60.887,383.769 60.833,382.917 60.833 C 382.065 60.833,381.833 60.780,381.833 60.583 C 381.833 60.410,381.660 60.333,381.269 60.333 C 380.846 60.333,380.684 60.250,380.618 60.000 C 380.555 59.757,380.391 59.667,380.016 59.667 C 379.668 59.667,379.500 59.585,379.500 59.417 C 379.500 59.279,379.415 59.167,379.310 59.167 C 379.206 59.167,379.031 59.044,378.921 58.895 C 378.404 58.188,376.167 58.411,376.167 59.170 C 376.167 59.500,376.083 59.667,375.917 59.667 C 375.742 59.667,375.667 59.843,375.667 60.250 C 375.667 60.722,375.603 60.833,375.333 60.833 C 375.063 60.833,375.000 60.944,375.000 61.417 C 375.000 61.824,374.925 62.000,374.750 62.000 C 374.583 62.000,374.500 62.167,374.500 62.500 C 374.500 62.833,374.417 63.000,374.250 63.000 C 374.075 63.000,374.000 63.176,374.000 63.583 C 374.000 64.056,373.937 64.167,373.667 64.167 C 373.378 64.167,373.333 64.278,373.333 65.000 C 373.333 65.722,373.378 65.833,373.667 65.833 C 373.850 65.833,374.001 65.927,374.003 66.042 C 374.008 66.400,374.777 67.000,375.232 67.000 C 375.507 67.000,375.667 67.092,375.667 67.250 C 375.667 67.414,375.831 67.500,376.147 67.500 C 376.488 67.500,376.653 67.597,376.715 67.833 C 376.778 68.076,376.942 68.167,377.318 68.167 C 377.665 68.167,377.833 68.248,377.833 68.417 C 377.833 68.605,378.035 68.667,378.649 68.667 C 379.220 68.667,379.493 68.742,379.560 68.917 C 379.635 69.110,379.959 69.167,380.995 69.167 C 382.028 69.167,382.333 69.220,382.333 69.399 C 382.333 69.990,389.173 70.086,389.539 69.500 C 389.711 69.224,389.927 69.167,390.790 69.167 C 391.606 69.167,391.833 69.112,391.833 68.917 C 391.833 68.728,392.037 68.667,392.667 68.667 C 393.267 68.667,393.500 68.602,393.500 68.435 C 393.500 68.303,393.749 68.157,394.083 68.094 C 394.433 68.029,394.667 67.888,394.667 67.742 C 394.667 67.609,394.779 67.500,394.917 67.500 C 395.054 67.500,395.167 67.387,395.167 67.250 C 395.167 67.082,395.335 67.000,395.682 67.000 C 396.058 67.000,396.222 66.909,396.285 66.667 C 396.333 66.483,396.476 66.333,396.603 66.333 C 396.748 66.333,396.833 66.148,396.833 65.833 C 396.833 65.444,396.907 65.333,397.167 65.333 C 397.389 65.333,397.500 65.222,397.500 65.000 C 397.500 64.815,397.611 64.667,397.750 64.667 C 397.887 64.667,398.000 64.554,398.000 64.417 C 398.000 64.279,398.109 64.167,398.242 64.167 C 398.388 64.167,398.529 63.933,398.594 63.583 C 398.657 63.249,398.803 63.000,398.935 63.000 C 399.102 63.000,399.167 62.767,399.167 62.167 C 399.167 61.537,399.228 61.333,399.417 61.333 C 399.613 61.333,399.667 61.102,399.667 60.250 C 399.667 59.639,399.739 59.167,399.833 59.167 C 399.943 59.167,400.000 54.556,400.000 45.667 C 400.000 36.778,399.943 32.167,399.833 32.167 C 399.742 32.167,399.667 32.053,399.667 31.914 C 399.667 31.693,399.138 31.667,395.542 31.705 L 391.417 31.750 391.373 37.875 C 391.337 42.952,391.290 44.000,391.099 44.000 C 390.766 44.000,390.667 44.382,390.667 45.662 C 390.667 46.518,390.605 46.821,390.417 46.894 C 390.271 46.950,390.167 47.199,390.167 47.495 C 390.167 47.833,390.084 48.000,389.917 48.000 C 389.779 48.000,389.667 48.112,389.667 48.250 C 389.667 48.387,389.596 48.500,389.509 48.500 C 389.279 48.500,388.500 49.255,388.500 49.477 C 388.500 49.606,387.966 49.667,386.833 49.667 C 385.520 49.667,385.167 49.617,385.167 49.434 C 385.167 49.180,384.816 49.000,384.320 49.000 C 384.076 49.000,384.000 48.882,384.000 48.500 C 384.000 48.167,383.917 48.000,383.750 48.000 C 383.561 48.000,383.500 47.796,383.500 47.167 C 383.500 46.444,383.456 46.333,383.167 46.333 C 382.839 46.333,382.833 46.222,382.833 39.250 C 382.833 33.065,382.802 32.167,382.583 32.167 C 382.446 32.167,382.333 32.054,382.333 31.917 C 382.333 31.701,381.759 31.667,378.167 31.667 L 374.000 31.667 374.000 41.167 M150.715 40.333 C 150.778 40.576,150.942 40.667,151.318 40.667 C 151.665 40.667,151.833 40.748,151.833 40.917 C 151.833 41.054,151.946 41.167,152.083 41.167 C 152.221 41.167,152.333 41.271,152.333 41.399 C 152.333 41.527,152.446 41.674,152.583 41.727 C 152.721 41.780,152.833 41.938,152.833 42.078 C 152.833 42.222,152.978 42.333,153.167 42.333 C 153.437 42.333,153.500 42.444,153.500 42.917 C 153.500 43.324,153.575 43.500,153.750 43.500 C 153.961 43.500,154.000 43.889,154.000 46.000 C 154.000 48.111,153.961 48.500,153.750 48.500 C 153.575 48.500,153.500 48.676,153.500 49.083 C 153.500 49.556,153.437 49.667,153.167 49.667 C 152.981 49.667,152.833 49.778,152.833 49.917 C 152.833 50.054,152.721 50.167,152.583 50.167 C 152.446 50.167,152.333 50.279,152.333 50.417 C 152.333 50.554,152.221 50.667,152.083 50.667 C 151.944 50.667,151.833 50.815,151.833 51.000 C 151.833 51.270,151.722 51.333,151.250 51.333 C 150.843 51.333,150.667 51.409,150.667 51.583 C 150.667 51.786,150.398 51.833,149.250 51.833 C 148.102 51.833,147.833 51.786,147.833 51.583 C 147.833 51.409,147.657 51.333,147.250 51.333 C 146.778 51.333,146.667 51.270,146.667 51.000 C 146.667 50.815,146.556 50.667,146.417 50.667 C 146.279 50.667,146.167 50.554,146.167 50.417 C 146.167 50.278,146.019 50.167,145.833 50.167 C 145.648 50.167,145.500 50.056,145.500 49.917 C 145.500 49.779,145.387 49.667,145.250 49.667 C 145.061 49.667,145.000 49.463,145.000 48.833 C 145.000 48.204,144.939 48.000,144.750 48.000 C 144.540 48.000,144.500 47.639,144.500 45.750 C 144.500 43.861,144.540 43.500,144.750 43.500 C 144.925 43.500,145.000 43.324,145.000 42.917 C 145.000 42.509,145.075 42.333,145.250 42.333 C 145.387 42.333,145.500 42.226,145.500 42.095 C 145.500 41.963,145.650 41.808,145.833 41.750 C 146.017 41.692,146.167 41.537,146.167 41.405 C 146.167 41.274,146.279 41.167,146.417 41.167 C 146.554 41.167,146.667 41.054,146.667 40.917 C 146.667 40.748,146.835 40.667,147.182 40.667 C 147.558 40.667,147.722 40.576,147.785 40.333 C 147.863 40.034,148.012 40.000,149.250 40.000 C 150.488 40.000,150.637 40.034,150.715 40.333 M182.667 40.333 C 182.667 40.517,182.771 40.667,182.899 40.667 C 183.027 40.667,183.174 40.779,183.227 40.917 C 183.283 41.063,183.533 41.167,183.828 41.167 C 184.280 41.167,184.333 41.220,184.333 41.672 C 184.333 41.967,184.437 42.217,184.583 42.273 C 184.721 42.326,184.833 42.473,184.833 42.601 C 184.833 42.729,184.983 42.833,185.167 42.833 C 185.456 42.833,185.500 42.944,185.500 43.667 C 185.500 44.296,185.561 44.500,185.750 44.500 C 185.948 44.500,186.000 44.741,186.000 45.667 C 186.000 46.593,185.948 46.833,185.750 46.833 C 185.553 46.833,185.500 47.065,185.500 47.917 C 185.500 48.889,185.466 49.000,185.167 49.000 C 184.944 49.000,184.833 49.111,184.833 49.333 C 184.833 49.519,184.722 49.667,184.583 49.667 C 184.446 49.667,184.333 49.779,184.333 49.917 C 184.333 50.054,184.221 50.167,184.083 50.167 C 183.946 50.167,183.833 50.279,183.833 50.417 C 183.833 50.554,183.714 50.667,183.568 50.667 C 183.422 50.667,183.263 50.817,183.215 51.000 C 183.153 51.237,182.988 51.333,182.642 51.333 C 182.364 51.333,182.115 51.440,182.060 51.583 C 181.989 51.769,181.692 51.833,180.899 51.833 C 180.063 51.833,179.833 51.779,179.833 51.583 C 179.833 51.409,179.657 51.333,179.250 51.333 C 178.926 51.333,178.667 51.249,178.667 51.144 C 178.667 50.922,177.888 50.167,177.658 50.167 C 177.571 50.167,177.500 50.054,177.500 49.917 C 177.500 49.779,177.387 49.667,177.250 49.667 C 177.111 49.667,177.000 49.519,177.000 49.333 C 177.000 49.148,176.889 49.000,176.750 49.000 C 176.564 49.000,176.500 48.804,176.500 48.234 C 176.500 47.609,176.439 47.453,176.167 47.382 C 175.867 47.303,175.833 47.154,175.833 45.917 C 175.833 44.679,175.867 44.530,176.167 44.452 C 176.439 44.380,176.500 44.224,176.500 43.599 C 176.500 43.030,176.564 42.833,176.750 42.833 C 176.917 42.833,177.000 42.667,177.000 42.333 C 177.000 42.000,177.083 41.833,177.250 41.833 C 177.389 41.833,177.500 41.685,177.500 41.500 C 177.500 41.278,177.611 41.167,177.833 41.167 C 178.019 41.167,178.167 41.056,178.167 40.917 C 178.167 40.750,178.333 40.667,178.667 40.667 C 179.056 40.667,179.167 40.593,179.167 40.333 C 179.167 40.021,179.278 40.000,180.917 40.000 C 182.556 40.000,182.667 40.021,182.667 40.333 M241.048 40.333 C 241.108 40.560,241.276 40.667,241.573 40.667 C 241.814 40.667,242.054 40.779,242.106 40.917 C 242.159 41.054,242.307 41.167,242.434 41.167 C 242.562 41.167,242.667 41.279,242.667 41.417 C 242.667 41.554,242.779 41.667,242.917 41.667 C 243.056 41.667,243.167 41.815,243.167 42.000 C 243.167 42.222,243.278 42.333,243.500 42.333 C 243.760 42.333,243.833 42.444,243.833 42.839 C 243.833 43.134,243.937 43.384,244.083 43.440 C 244.290 43.519,244.333 43.965,244.333 46.018 C 244.333 48.113,244.294 48.500,244.083 48.500 C 243.909 48.500,243.833 48.676,243.833 49.083 C 243.833 49.556,243.770 49.667,243.500 49.667 C 243.315 49.667,243.167 49.778,243.167 49.917 C 243.167 50.054,243.054 50.167,242.917 50.167 C 242.779 50.167,242.667 50.279,242.667 50.417 C 242.667 50.554,242.559 50.667,242.428 50.667 C 242.297 50.667,242.142 50.817,242.083 51.000 C 242.009 51.234,241.831 51.333,241.489 51.333 C 241.165 51.333,241.000 51.418,241.000 51.583 C 241.000 51.782,240.759 51.833,239.833 51.833 C 238.907 51.833,238.667 51.782,238.667 51.583 C 238.667 51.409,238.491 51.333,238.083 51.333 C 237.672 51.333,237.500 51.259,237.500 51.079 C 237.500 50.930,237.293 50.784,237.000 50.725 C 236.725 50.670,236.500 50.522,236.500 50.396 C 236.500 50.270,236.350 50.167,236.167 50.167 C 235.907 50.167,235.833 50.056,235.833 49.661 C 235.833 49.366,235.729 49.116,235.583 49.060 C 235.441 49.006,235.333 48.757,235.333 48.482 C 235.333 48.165,235.248 48.000,235.083 48.000 C 234.875 48.000,234.833 47.669,234.833 46.018 C 234.833 44.410,234.881 44.018,235.083 43.940 C 235.255 43.874,235.333 43.606,235.333 43.089 C 235.333 42.528,235.398 42.333,235.583 42.333 C 235.721 42.333,235.833 42.221,235.833 42.083 C 235.833 41.946,235.953 41.833,236.099 41.833 C 236.245 41.833,236.404 41.683,236.452 41.500 C 236.500 41.317,236.643 41.167,236.769 41.167 C 236.896 41.167,237.000 41.054,237.000 40.917 C 237.000 40.748,237.168 40.667,237.516 40.667 C 237.891 40.667,238.055 40.576,238.118 40.333 C 238.197 40.034,238.346 40.000,239.583 40.000 C 240.821 40.000,240.970 40.034,241.048 40.333 M297.667 40.333 C 297.667 40.593,297.778 40.667,298.172 40.667 C 298.467 40.667,298.717 40.771,298.773 40.917 C 298.826 41.054,298.973 41.167,299.101 41.167 C 299.229 41.167,299.333 41.271,299.333 41.399 C 299.333 41.527,299.446 41.674,299.583 41.727 C 299.721 41.780,299.833 41.938,299.833 42.078 C 299.833 42.222,299.978 42.333,300.167 42.333 C 300.437 42.333,300.500 42.444,300.500 42.917 C 300.500 43.324,300.575 43.500,300.750 43.500 C 300.961 43.500,301.000 43.889,301.000 46.000 C 301.000 48.111,300.961 48.500,300.750 48.500 C 300.575 48.500,300.500 48.676,300.500 49.083 C 300.500 49.556,300.437 49.667,300.167 49.667 C 299.981 49.667,299.833 49.778,299.833 49.917 C 299.833 50.054,299.721 50.167,299.583 50.167 C 299.446 50.167,299.333 50.279,299.333 50.417 C 299.333 50.554,299.214 50.667,299.068 50.667 C 298.922 50.667,298.763 50.817,298.715 51.000 C 298.653 51.236,298.488 51.333,298.147 51.333 C 297.831 51.333,297.667 51.419,297.667 51.583 C 297.667 51.786,297.398 51.833,296.250 51.833 C 295.102 51.833,294.833 51.786,294.833 51.583 C 294.833 51.409,294.657 51.333,294.250 51.333 C 293.778 51.333,293.667 51.270,293.667 51.000 C 293.667 50.815,293.556 50.667,293.417 50.667 C 293.279 50.667,293.167 50.554,293.167 50.417 C 293.167 50.278,293.019 50.167,292.833 50.167 C 292.648 50.167,292.500 50.056,292.500 49.917 C 292.500 49.779,292.387 49.667,292.250 49.667 C 292.075 49.667,292.000 49.491,292.000 49.083 C 292.000 48.676,291.925 48.500,291.750 48.500 C 291.539 48.500,291.500 48.113,291.500 46.018 C 291.500 43.965,291.543 43.519,291.750 43.440 C 291.896 43.384,292.000 43.134,292.000 42.839 C 292.000 42.501,292.083 42.333,292.250 42.333 C 292.387 42.333,292.500 42.226,292.500 42.095 C 292.500 41.963,292.650 41.808,292.833 41.750 C 293.017 41.692,293.167 41.537,293.167 41.405 C 293.167 41.274,293.279 41.167,293.417 41.167 C 293.554 41.167,293.667 41.054,293.667 40.917 C 293.667 40.748,293.835 40.667,294.182 40.667 C 294.558 40.667,294.722 40.576,294.785 40.333 C 294.863 40.033,295.012 40.000,296.269 40.000 C 297.556 40.000,297.667 40.027,297.667 40.333 M329.667 40.333 C 329.667 40.519,329.778 40.667,329.917 40.667 C 330.054 40.667,330.167 40.779,330.167 40.917 C 330.167 41.091,330.343 41.167,330.750 41.167 C 331.288 41.167,331.333 41.206,331.333 41.672 C 331.333 41.967,331.437 42.217,331.583 42.273 C 331.721 42.326,331.833 42.473,331.833 42.601 C 331.833 42.729,331.946 42.833,332.083 42.833 C 332.275 42.833,332.333 43.045,332.333 43.736 C 332.333 44.793,332.447 45.167,332.768 45.167 C 333.177 45.167,333.082 46.773,332.667 46.882 C 332.396 46.952,332.333 47.109,332.333 47.717 C 332.333 48.228,332.254 48.495,332.083 48.560 C 331.937 48.616,331.833 48.866,331.833 49.161 C 331.833 49.499,331.751 49.667,331.583 49.667 C 331.446 49.667,331.333 49.779,331.333 49.917 C 331.333 50.054,331.262 50.167,331.175 50.167 C 330.946 50.167,330.167 50.922,330.167 51.144 C 330.167 51.249,329.907 51.333,329.583 51.333 C 329.176 51.333,329.000 51.409,329.000 51.583 C 329.000 51.779,328.770 51.833,327.934 51.833 C 327.141 51.833,326.844 51.769,326.773 51.583 C 326.717 51.437,326.467 51.333,326.172 51.333 C 325.851 51.333,325.667 51.249,325.667 51.101 C 325.667 50.846,325.316 50.667,324.820 50.667 C 324.576 50.667,324.500 50.548,324.500 50.167 C 324.500 49.833,324.417 49.667,324.250 49.667 C 324.112 49.667,324.000 49.552,324.000 49.411 C 324.000 49.271,323.897 49.117,323.770 49.068 C 323.641 49.019,323.492 48.617,323.431 48.157 C 323.356 47.594,323.244 47.333,323.078 47.333 C 322.882 47.333,322.833 47.050,322.833 45.917 C 322.833 44.783,322.882 44.500,323.078 44.500 C 323.245 44.500,323.357 44.237,323.432 43.667 C 323.504 43.126,323.623 42.833,323.771 42.833 C 323.914 42.833,324.000 42.646,324.000 42.333 C 324.000 42.000,324.083 41.833,324.250 41.833 C 324.389 41.833,324.500 41.685,324.500 41.500 C 324.500 41.278,324.611 41.167,324.833 41.167 C 325.019 41.167,325.167 41.056,325.167 40.917 C 325.167 40.750,325.333 40.667,325.667 40.667 C 326.056 40.667,326.167 40.593,326.167 40.333 C 326.167 40.021,326.278 40.000,327.917 40.000 C 329.556 40.000,329.667 40.021,329.667 40.333 M359.382 40.333 C 359.445 40.576,359.609 40.667,359.984 40.667 C 360.332 40.667,360.500 40.748,360.500 40.917 C 360.500 41.054,360.613 41.167,360.750 41.167 C 360.887 41.167,361.000 41.238,361.000 41.325 C 361.000 41.554,361.755 42.333,361.977 42.333 C 362.083 42.333,362.167 42.593,362.167 42.917 C 362.167 43.324,362.242 43.500,362.417 43.500 C 362.627 43.500,362.667 43.861,362.667 45.750 C 362.667 47.639,362.627 48.000,362.417 48.000 C 362.228 48.000,362.167 48.204,362.167 48.833 C 362.167 49.471,362.107 49.667,361.911 49.667 C 361.771 49.667,361.613 49.779,361.560 49.917 C 361.508 50.054,361.360 50.167,361.232 50.167 C 361.104 50.167,361.000 50.279,361.000 50.417 C 361.000 50.554,360.887 50.667,360.750 50.667 C 360.611 50.667,360.500 50.815,360.500 51.000 C 360.500 51.270,360.389 51.333,359.917 51.333 C 359.509 51.333,359.333 51.409,359.333 51.583 C 359.333 51.786,359.065 51.833,357.917 51.833 C 356.769 51.833,356.500 51.786,356.500 51.583 C 356.500 51.409,356.324 51.333,355.917 51.333 C 355.444 51.333,355.333 51.270,355.333 51.000 C 355.333 50.815,355.222 50.667,355.083 50.667 C 354.946 50.667,354.833 50.554,354.833 50.417 C 354.833 50.279,354.721 50.167,354.583 50.167 C 354.446 50.167,354.333 50.054,354.333 49.917 C 354.333 49.778,354.185 49.667,354.000 49.667 C 353.730 49.667,353.667 49.556,353.667 49.083 C 353.667 48.676,353.591 48.500,353.417 48.500 C 353.206 48.500,353.167 48.111,353.167 46.000 C 353.167 43.889,353.206 43.500,353.417 43.500 C 353.591 43.500,353.667 43.324,353.667 42.917 C 353.667 42.593,353.751 42.333,353.856 42.333 C 354.078 42.333,354.833 41.554,354.833 41.325 C 354.833 41.238,354.946 41.167,355.083 41.167 C 355.221 41.167,355.333 41.054,355.333 40.917 C 355.333 40.748,355.502 40.667,355.849 40.667 C 356.224 40.667,356.388 40.576,356.452 40.333 C 356.530 40.034,356.679 40.000,357.917 40.000 C 359.154 40.000,359.303 40.034,359.382 40.333 " stroke="none" fill="#241c44" fill-rule="evenodd"></path><path id="path2" d="M80.638 78.292 C 88.002 78.316,100.002 78.316,107.305 78.292 C 114.608 78.268,108.583 78.248,93.917 78.248 C 79.250 78.248,73.275 78.268,80.638 78.292 " stroke="none" fill="#c4c83c" fill-rule="evenodd"></path><path id="path3" d="M80.638 78.292 C 88.002 78.316,100.002 78.316,107.305 78.292 C 114.608 78.268,108.583 78.248,93.917 78.248 C 79.250 78.248,73.275 78.268,80.638 78.292 " stroke="none" fill="#c4c83c" fill-rule="evenodd"></path><path id="path4" d="M80.638 78.292 C 88.002 78.316,100.002 78.316,107.305 78.292 C 114.608 78.268,108.583 78.248,93.917 78.248 C 79.250 78.248,73.275 78.268,80.638 78.292 " stroke="none" fill="#c4c83c" fill-rule="evenodd"></path></g></svg>