<?xml version="1.0" encoding="UTF-8"?>
<!DOCTYPE svg PUBLIC "-//W3C//DTD SVG 1.1//EN" "http://www.w3.org/Graphics/SVG/1.1/DTD/svg11.dtd">
<svg xmlns="http://www.w3.org/2000/svg" version="1.1" width="713px" height="179px" style="shape-rendering:geometricPrecision; text-rendering:geometricPrecision; image-rendering:optimizeQuality; fill-rule:evenodd; clip-rule:evenodd" xmlns:xlink="http://www.w3.org/1999/xlink">
<g><path style="opacity:1" fill="#f3c232" d="M 104.5,-0.5 C 111.5,-0.5 118.5,-0.5 125.5,-0.5C 127.5,0.5 129.5,1.5 131.5,2.5C 132.514,3.67373 133.847,4.3404 135.5,4.5C 139.049,5.72316 142.049,7.72316 144.5,10.5C 144.833,11.5 145.5,12.1667 146.5,12.5C 148.86,13.865 150.527,15.865 151.5,18.5C 151.833,19.5 152.5,20.1667 153.5,20.5C 153.427,22.0269 154.094,23.0269 155.5,23.5C 157.692,26.5498 159.358,29.8832 160.5,33.5C 160.427,35.0269 161.094,36.0269 162.5,36.5C 164.692,39.5498 166.358,42.8832 167.5,46.5C 167.66,48.153 168.326,49.4863 169.5,50.5C 169.427,52.0269 170.094,53.0269 171.5,53.5C 174.008,57.1822 176.008,61.1822 177.5,65.5C 177.427,67.0269 178.094,68.0269 179.5,68.5C 179.5,68.8333 179.5,69.1667 179.5,69.5C 179.427,71.0269 180.094,72.0269 181.5,72.5C 181.5,72.8333 181.5,73.1667 181.5,73.5C 181.427,75.0269 182.094,76.0269 183.5,76.5C 184.338,76.8417 184.672,77.5084 184.5,78.5C 184.427,80.0269 185.094,81.0269 186.5,81.5C 186.5,81.8333 186.5,82.1667 186.5,82.5C 186.427,84.0269 187.094,85.0269 188.5,85.5C 188.5,85.8333 188.5,86.1667 188.5,86.5C 189.11,88.4341 190.11,90.1007 191.5,91.5C 193.674,94.5154 195.341,97.8487 196.5,101.5C 196.932,102.71 197.599,103.71 198.5,104.5C 200.674,107.515 202.341,110.849 203.5,114.5C 203.427,116.027 204.094,117.027 205.5,117.5C 207.674,120.515 209.341,123.849 210.5,127.5C 205.073,129.146 199.406,130.146 193.5,130.5C 187.131,130.653 180.797,130.32 174.5,129.5C 173.508,129.672 172.842,129.338 172.5,128.5C 172.027,127.094 171.027,126.427 169.5,126.5C 169.167,125.5 168.5,124.833 167.5,124.5C 165.953,123.232 164.953,121.565 164.5,119.5C 164.34,117.847 163.674,116.514 162.5,115.5C 157.31,106.453 152.643,97.1198 148.5,87.5C 148.771,85.6203 148.104,84.287 146.5,83.5C 144.556,79.946 142.889,76.2793 141.5,72.5C 141.34,70.847 140.674,69.5137 139.5,68.5C 137.992,66.8185 136.992,64.8185 136.5,62.5C 136.573,60.9731 135.906,59.9731 134.5,59.5C 132.015,53.0255 128.348,47.3588 123.5,42.5C 121.883,41.0277 119.883,40.361 117.5,40.5C 115.955,40.5108 114.622,40.8442 113.5,41.5C 110.238,43.4203 107.238,45.7537 104.5,48.5C 103.094,48.9731 102.427,49.9731 102.5,51.5C 94.7191,69.347 86.0524,86.6803 76.5,103.5C 75.3263,104.514 74.6596,105.847 74.5,107.5C 73.8772,109.711 72.8772,111.711 71.5,113.5C 70.0937,113.973 69.427,114.973 69.5,116.5C 67.6956,121.442 65.3622,126.109 62.5,130.5C 61.5987,131.29 60.9321,132.29 60.5,133.5C 60.0745,136.119 59.0745,138.453 57.5,140.5C 56.0937,140.973 55.427,141.973 55.5,143.5C 53.2381,151.044 49.2381,157.378 43.5,162.5C 30.4957,162.667 17.4957,162.5 4.5,162C 3.57692,159.959 3.24358,157.792 3.5,155.5C 3.5,155.167 3.5,154.833 3.5,154.5C 4.90632,154.027 5.57298,153.027 5.5,151.5C 5.5,151.167 5.5,150.833 5.5,150.5C 6.90632,150.027 7.57298,149.027 7.5,147.5C 8.65893,143.849 10.3256,140.515 12.5,137.5C 13.9063,137.027 14.573,136.027 14.5,134.5C 15.6589,130.849 17.3256,127.515 19.5,124.5C 20.4013,123.71 21.0679,122.71 21.5,121.5C 21.5569,120.391 21.8902,119.391 22.5,118.5C 23.9063,118.027 24.573,117.027 24.5,115.5C 24.5,115.167 24.5,114.833 24.5,114.5C 25.9063,114.027 26.573,113.027 26.5,111.5C 26.5,111.167 26.5,110.833 26.5,110.5C 28.2624,109.738 29.2624,108.404 29.5,106.5C 29.5,106.167 29.5,105.833 29.5,105.5C 30.9063,105.027 31.573,104.027 31.5,102.5C 31.4021,100.447 32.0687,98.7804 33.5,97.5C 34.9063,97.0269 35.573,96.0269 35.5,94.5C 36.6589,90.8487 38.3256,87.5154 40.5,84.5C 41.9063,84.0269 42.573,83.0269 42.5,81.5C 42.5569,80.391 42.8902,79.391 43.5,78.5C 44.9063,78.0269 45.573,77.0269 45.5,75.5C 45.5,75.1667 45.5,74.8333 45.5,74.5C 46.9063,74.0269 47.573,73.0269 47.5,71.5C 47.9925,69.1815 48.9925,67.1815 50.5,65.5C 51.9063,65.0269 52.573,64.0269 52.5,62.5C 52.5,62.1667 52.5,61.8333 52.5,61.5C 53.9063,61.0269 54.573,60.0269 54.5,58.5C 57.9906,50.1854 61.9906,42.1854 66.5,34.5C 67.9063,34.0269 68.573,33.0269 68.5,31.5C 69.1228,29.2895 70.1228,27.2895 71.5,25.5C 72.9063,25.0269 73.573,24.0269 73.5,22.5C 73.5,22.1667 73.5,21.8333 73.5,21.5C 74.9063,21.0269 75.573,20.0269 75.5,18.5C 76.8333,16.5 78.5,14.8333 80.5,13.5C 82.7488,12.9202 84.4154,11.5869 85.5,9.5C 86.5,9.16667 87.1667,8.5 87.5,7.5C 88.8993,6.11028 90.5659,5.11028 92.5,4.5C 94.0269,4.57298 95.0269,3.90632 95.5,2.5C 95.8333,2.5 96.1667,2.5 96.5,2.5C 99.4855,2.09723 102.152,1.09723 104.5,-0.5 Z"/></g>
<g><path style="opacity:0.941" fill="#9e7d39" d="M 101.5,-0.5 C 102.5,-0.5 103.5,-0.5 104.5,-0.5C 102.152,1.09723 99.4855,2.09723 96.5,2.5C 97.9133,1.06521 99.58,0.0652098 101.5,-0.5 Z"/></g>
<g><path style="opacity:0.4" fill="#84693a" d="M 131.5,2.5 C 133.38,2.22911 134.713,2.89578 135.5,4.5C 133.847,4.3404 132.514,3.67373 131.5,2.5 Z"/></g>
<g><path style="opacity:0.992" fill="#a08039" d="M 95.5,2.5 C 95.0269,3.90632 94.0269,4.57298 92.5,4.5C 92.9731,3.09368 93.9731,2.42702 95.5,2.5 Z"/></g>
<g><path style="opacity:0.78" fill="#8b6f39" d="M 87.5,7.5 C 87.1667,8.5 86.5,9.16667 85.5,9.5C 85.5,8.16667 86.1667,7.5 87.5,7.5 Z"/></g>
<g><path style="opacity:0.059" fill="#866b3a" d="M 144.5,10.5 C 145.833,10.5 146.5,11.1667 146.5,12.5C 145.5,12.1667 144.833,11.5 144.5,10.5 Z"/></g>
<g><path style="opacity:1" fill="#ba9438" d="M 85.5,9.5 C 84.4154,11.5869 82.7488,12.9202 80.5,13.5C 81.5846,11.4131 83.2512,10.0798 85.5,9.5 Z"/></g>
<g><path style="opacity:0.024" fill="#82673a" d="M 151.5,18.5 C 152.833,18.5 153.5,19.1667 153.5,20.5C 152.5,20.1667 151.833,19.5 151.5,18.5 Z"/></g>
<g><path style="opacity:0.635" fill="#866b3a" d="M 75.5,18.5 C 75.573,20.0269 74.9063,21.0269 73.5,21.5C 73.427,19.9731 74.0937,18.9731 75.5,18.5 Z"/></g>
<g><path style="opacity:0.733" fill="#92753a" d="M 153.5,20.5 C 154.906,20.9731 155.573,21.9731 155.5,23.5C 154.094,23.0269 153.427,22.0269 153.5,20.5 Z"/></g>
<g><path style="opacity:0.71" fill="#8d713a" d="M 73.5,22.5 C 73.573,24.0269 72.9063,25.0269 71.5,25.5C 71.427,23.9731 72.0937,22.9731 73.5,22.5 Z"/></g>
<g><path style="opacity:0.455" fill="#7f663b" d="M 68.5,31.5 C 68.573,33.0269 67.9063,34.0269 66.5,34.5C 66.427,32.9731 67.0937,31.9731 68.5,31.5 Z"/></g>
<g><path style="opacity:0.667" fill="#8f723a" d="M 160.5,33.5 C 161.906,33.9731 162.573,34.9731 162.5,36.5C 161.094,36.0269 160.427,35.0269 160.5,33.5 Z"/></g>
<g><path style="opacity:0.929" fill="#251f41" d="M 480.5,39.5 C 485.43,39.1975 490.263,39.5308 495,40.5C 495.174,57.7404 495.674,74.9071 496.5,92C 499.095,92.2256 501.595,92.7256 504,93.5C 501.047,82.9524 502.38,72.9524 508,63.5C 516.085,56.2615 525.252,54.5948 535.5,58.5C 536.308,58.1924 536.975,57.6924 537.5,57C 542.167,56.3333 546.833,56.3333 551.5,57C 552.828,73.1369 552.828,89.3036 551.5,105.5C 547.205,106.661 542.871,106.828 538.5,106C 537.874,105.25 537.374,104.416 537,103.5C 523.674,109.61 513.008,106.61 505,94.5C 505.052,98.6564 504.219,102.49 502.5,106C 490.678,109.093 483.178,104.926 480,93.5C 479.181,75.4264 479.348,57.4264 480.5,39.5 Z M 524.5,70.5 C 534.876,70.876 538.709,76.2093 536,86.5C 533.647,91.4264 529.814,93.2598 524.5,92C 522,90.8333 520.167,89 519,86.5C 517.016,79.6603 518.85,74.3269 524.5,70.5 Z"/></g>
<g><path style="opacity:0.265" fill="#7d643b" d="M 113.5,41.5 C 114.622,40.8442 115.955,40.5108 117.5,40.5C 119.883,40.361 121.883,41.0277 123.5,42.5C 120.214,41.7929 116.881,41.4595 113.5,41.5 Z"/></g>
<g><path style="opacity:0.608" fill="#92743a" d="M 167.5,46.5 C 169.104,47.287 169.771,48.6203 169.5,50.5C 168.326,49.4863 167.66,48.153 167.5,46.5 Z"/></g>
<g><path style="opacity:0.047" fill="#7a613b" d="M 104.5,48.5 C 104.573,50.0269 103.906,51.0269 102.5,51.5C 102.427,49.9731 103.094,48.9731 104.5,48.5 Z"/></g>
<g><path style="opacity:0.678" fill="#8e713a" d="M 169.5,50.5 C 170.906,50.9731 171.573,51.9731 171.5,53.5C 170.094,53.0269 169.427,52.0269 169.5,50.5 Z"/></g>
<g><path style="opacity:0.932" fill="#251f41" d="M 256.5,56.5 C 262.358,55.9875 268.025,56.6542 273.5,58.5C 276.222,56.9374 279.222,56.2708 282.5,56.5C 285.089,56.5272 287.589,56.8606 290,57.5C 290.824,73.7408 290.658,89.9075 289.5,106C 285.167,106.667 280.833,106.667 276.5,106C 275.874,105.25 275.374,104.416 275,103.5C 265.075,108.173 255.742,107.173 247,100.5C 238.739,88.3751 238.406,76.0417 246,63.5C 249.154,60.4884 252.654,58.1551 256.5,56.5 Z M 262.5,70.5 C 272.876,70.876 276.709,76.2093 274,86.5C 270.96,92.3682 266.46,93.8682 260.5,91C 256.809,86.8645 255.642,82.0312 257,76.5C 258.36,73.9774 260.193,71.9774 262.5,70.5 Z"/></g>
<g><path style="opacity:0.954" fill="#251f41" d="M 298.5,56.5 C 302.846,56.3343 307.179,56.501 311.5,57C 313.337,58.4803 315.337,58.4803 317.5,57C 331.969,54.1454 341.469,59.6454 346,73.5C 349.029,86.0841 345.529,96.2508 335.5,104C 327.863,107.49 320.363,107.323 313,103.5C 312.5,109.825 312.334,116.158 312.5,122.5C 307.5,122.5 302.5,122.5 297.5,122.5C 297.178,100.425 297.511,78.4247 298.5,56.5 Z M 318.5,70.5 C 329.529,71.0575 333.362,76.7242 330,87.5C 322.915,94.7501 317.248,93.7501 313,84.5C 312.013,78.6109 313.847,73.9443 318.5,70.5 Z"/></g>
<g><path style="opacity:0.933" fill="#251f41" d="M 351.5,56.5 C 356.167,56.5 360.833,56.5 365.5,56.5C 365.281,57.675 365.614,58.675 366.5,59.5C 374.053,55.724 381.719,55.5573 389.5,59C 392.433,61.2643 394.6,64.0976 396,67.5C 397.607,80.0961 397.941,92.7628 397,105.5C 392.333,106.833 387.667,106.833 383,105.5C 382.9,95.1082 382.233,84.7749 381,74.5C 378.192,70.5013 374.692,69.668 370.5,72C 368.513,73.3189 367.346,75.1523 367,77.5C 366.667,86.8333 366.333,96.1667 366,105.5C 361,106.833 356,106.833 351,105.5C 350.183,89.0926 350.349,72.7593 351.5,56.5 Z"/></g>
<g><path style="opacity:0.937" fill="#251f41" d="M 417.5,56.5 C 423.358,55.9875 429.025,56.6542 434.5,58.5C 437.222,56.9374 440.222,56.2708 443.5,56.5C 446.089,56.5272 448.589,56.8606 451,57.5C 451.824,73.7408 451.658,89.9075 450.5,106C 446.167,106.667 441.833,106.667 437.5,106C 436.874,105.25 436.374,104.416 436,103.5C 424.492,108.986 414.492,106.986 406,97.5C 399.575,85.4193 400.242,73.7526 408,62.5C 410.843,59.8373 414.009,57.8373 417.5,56.5 Z M 423.5,70.5 C 433.876,70.876 437.709,76.2093 435,86.5C 431.458,92.876 426.624,94.0426 420.5,90C 415.834,82.4664 416.834,75.9664 423.5,70.5 Z"/></g>
<g><path style="opacity:0.952" fill="#251f41" d="M 560.5,56.5 C 564.846,56.3343 569.179,56.501 573.5,57C 575.337,58.4803 577.337,58.4803 579.5,57C 593.932,54.1289 603.432,59.6289 608,73.5C 611.029,86.0841 607.529,96.2508 597.5,104C 589.863,107.49 582.363,107.323 575,103.5C 574.5,109.825 574.334,116.158 574.5,122.5C 569.5,122.5 564.5,122.5 559.5,122.5C 559.178,100.425 559.511,78.4247 560.5,56.5 Z M 580.5,70.5 C 590.261,70.5081 594.261,75.3414 592.5,85C 589.871,92.1508 585.204,93.9841 578.5,90.5C 572.841,83.1392 573.507,76.4725 580.5,70.5 Z"/></g>
<g><path style="opacity:0.936" fill="#251f41" d="M 613.5,56.5 C 617.846,56.3343 622.179,56.501 626.5,57C 627.126,57.7504 627.626,58.5838 628,59.5C 634.892,56.0911 642.058,55.5911 649.5,58C 660.24,64.847 664.406,74.6803 662,87.5C 656.616,104.693 645.616,110.027 629,103.5C 628.812,109.748 628.312,115.915 627.5,122C 622.581,122.802 617.748,122.635 613,121.5C 612.179,99.7605 612.345,78.0938 613.5,56.5 Z M 634.5,70.5 C 639.814,69.7397 643.647,71.7397 646,76.5C 646.767,80.5935 646.434,84.5935 645,88.5C 638.863,94.255 633.53,93.5883 629,86.5C 627.016,79.6603 628.85,74.3269 634.5,70.5 Z"/></g>
<g><path style="opacity:0.948" fill="#251f41" d="M 712.5,57.5 C 712.5,73.1667 712.5,88.8333 712.5,104.5C 708.016,119.765 697.683,125.931 681.5,123C 675.68,122.338 670.513,120.172 666,116.5C 666.845,111.812 669.011,107.812 672.5,104.5C 678.641,108.871 685.308,110.038 692.5,108C 694.227,106.611 695.561,104.944 696.5,103C 695.423,101.457 694.089,101.457 692.5,103C 679.706,106.191 671.206,101.691 667,89.5C 666.5,78.505 666.333,67.505 666.5,56.5C 671.43,56.1975 676.263,56.5308 681,57.5C 681.333,65.8333 681.667,74.1667 682,82.5C 683.668,88.1518 687.168,89.9852 692.5,88C 694.049,86.786 695.215,85.286 696,83.5C 697.346,74.5586 697.846,65.5586 697.5,56.5C 702.595,56.2213 707.595,56.5546 712.5,57.5 Z"/></g>
<g><path style="opacity:0.82" fill="#97783a" d="M 54.5,58.5 C 54.573,60.0269 53.9063,61.0269 52.5,61.5C 52.427,59.9731 53.0937,58.9731 54.5,58.5 Z"/></g>
<g><path style="opacity:0.341" fill="#7f653b" d="M 134.5,59.5 C 135.906,59.9731 136.573,60.9731 136.5,62.5C 135.094,62.0269 134.427,61.0269 134.5,59.5 Z"/></g>
<g><path style="opacity:0.843" fill="#997a3a" d="M 52.5,62.5 C 52.573,64.0269 51.9063,65.0269 50.5,65.5C 50.427,63.9731 51.0937,62.9731 52.5,62.5 Z"/></g>
<g><path style="opacity:0.757" fill="#a88637" d="M 123.5,68.5 C 120.222,66.8933 117.222,67.2267 114.5,69.5C 117.222,67.2267 120.222,66.8933 123.5,68.5 Z"/></g>
<g><path style="opacity:1" fill="#f5c332" d="M 123.5,68.5 C 127.584,73.9131 131.25,79.5797 134.5,85.5C 135.62,89.5282 135.62,93.5282 134.5,97.5C 131.055,105.052 127.055,112.385 122.5,119.5C 121.094,119.973 120.427,120.973 120.5,122.5C 119.226,125.76 117.56,128.76 115.5,131.5C 114.094,131.973 113.427,132.973 113.5,134.5C 113.259,136.886 113.925,138.886 115.5,140.5C 150.069,141.173 184.736,141.84 219.5,142.5C 219.747,145.939 219.414,149.272 218.5,152.5C 217.076,154.515 216.41,156.848 216.5,159.5C 216.262,161.404 215.262,162.738 213.5,163.5C 211.632,164.263 209.965,165.263 208.5,166.5C 167.143,166.811 125.81,166.478 84.5,165.5C 84.1667,165.5 83.8333,165.5 83.5,165.5C 83.0269,164.094 82.0269,163.427 80.5,163.5C 78.7376,162.738 77.7376,161.404 77.5,159.5C 77.0862,157.192 76.7529,154.858 76.5,152.5C 77.1713,148.824 77.838,145.157 78.5,141.5C 79.3257,138.515 80.659,135.849 82.5,133.5C 83.6737,132.486 84.3404,131.153 84.5,129.5C 85.8951,125.71 87.5617,122.043 89.5,118.5C 90.9063,118.027 91.573,117.027 91.5,115.5C 92.8951,111.71 94.5617,108.043 96.5,104.5C 97.9063,104.027 98.573,103.027 98.5,101.5C 99.8951,97.7099 101.562,94.0432 103.5,90.5C 104.906,90.0269 105.573,89.0269 105.5,87.5C 106.895,83.7099 108.562,80.0432 110.5,76.5C 111.906,76.0269 112.573,75.0269 112.5,73.5C 112.66,71.847 113.326,70.5137 114.5,69.5C 117.222,67.2267 120.222,66.8933 123.5,68.5 Z"/></g>
<g><path style="opacity:0.369" fill="#82683a" d="M 177.5,65.5 C 178.906,65.9731 179.573,66.9731 179.5,68.5C 178.094,68.0269 177.427,67.0269 177.5,65.5 Z"/></g>
<g><path style="opacity:0.612" fill="#8b6f3a" d="M 139.5,68.5 C 140.674,69.5137 141.34,70.847 141.5,72.5C 139.896,71.713 139.229,70.3797 139.5,68.5 Z"/></g>
<g><path style="opacity:0.847" fill="#997a3a" d="M 179.5,69.5 C 180.906,69.9731 181.573,70.9731 181.5,72.5C 180.094,72.0269 179.427,71.0269 179.5,69.5 Z"/></g>
<g><path style="opacity:0.635" fill="#886c3a" d="M 47.5,71.5 C 47.573,73.0269 46.9063,74.0269 45.5,74.5C 45.427,72.9731 46.0937,71.9731 47.5,71.5 Z"/></g>
<g><path style="opacity:0.322" fill="#a08038" d="M 112.5,73.5 C 112.573,75.0269 111.906,76.0269 110.5,76.5C 110.427,74.9731 111.094,73.9731 112.5,73.5 Z"/></g>
<g><path style="opacity:0.886" fill="#9d7d39" d="M 181.5,73.5 C 182.906,73.9731 183.573,74.9731 183.5,76.5C 182.094,76.0269 181.427,75.0269 181.5,73.5 Z"/></g>
<g><path style="opacity:0.682" fill="#8b6e3a" d="M 45.5,75.5 C 45.573,77.0269 44.9063,78.0269 43.5,78.5C 43.427,76.9731 44.0937,75.9731 45.5,75.5 Z"/></g>
<g><path style="opacity:0.259" fill="#7f653b" d="M 184.5,78.5 C 185.906,78.9731 186.573,79.9731 186.5,81.5C 185.094,81.0269 184.427,80.0269 184.5,78.5 Z"/></g>
<g><path style="opacity:0.761" fill="#94763a" d="M 42.5,81.5 C 42.573,83.0269 41.9063,84.0269 40.5,84.5C 40.427,82.9731 41.0937,81.9731 42.5,81.5 Z"/></g>
<g><path style="opacity:0.78" fill="#91733a" d="M 186.5,82.5 C 187.906,82.9731 188.573,83.9731 188.5,85.5C 187.094,85.0269 186.427,84.0269 186.5,82.5 Z"/></g>
<g><path style="opacity:0.682" fill="#84693a" d="M 146.5,83.5 C 148.104,84.287 148.771,85.6203 148.5,87.5C 147.326,86.4863 146.66,85.153 146.5,83.5 Z"/></g>
<g><path style="opacity:0.82" fill="#8c6f3a" d="M 188.5,86.5 C 190.727,87.4006 191.727,89.0672 191.5,91.5C 190.11,90.1007 189.11,88.4341 188.5,86.5 Z"/></g>
<g><path style="opacity:0.271" fill="#9e7e38" d="M 105.5,87.5 C 105.573,89.0269 104.906,90.0269 103.5,90.5C 103.427,88.9731 104.094,87.9731 105.5,87.5 Z"/></g>
<g><path style="opacity:0.725" fill="#ac8937" d="M 134.5,85.5 C 135.997,87.2897 136.664,89.4563 136.5,92C 136.333,93.5 136.167,95 136,96.5C 135.617,97.056 135.117,97.3893 134.5,97.5C 135.62,93.5282 135.62,89.5282 134.5,85.5 Z"/></g>
<g><path style="opacity:0.455" fill="#856a3b" d="M 35.5,94.5 C 35.573,96.0269 34.9063,97.0269 33.5,97.5C 33.427,95.9731 34.0937,94.9731 35.5,94.5 Z"/></g>
<g><path style="opacity:0.029" fill="#7a613b" d="M 196.5,101.5 C 198.048,101.821 198.715,102.821 198.5,104.5C 197.599,103.71 196.932,102.71 196.5,101.5 Z"/></g>
<g><path style="opacity:0.282" fill="#9e7e38" d="M 98.5,101.5 C 98.573,103.027 97.9063,104.027 96.5,104.5C 96.427,102.973 97.0937,101.973 98.5,101.5 Z"/></g>
<g><path style="opacity:0.898" fill="#a08039" d="M 31.5,102.5 C 31.573,104.027 30.9063,105.027 29.5,105.5C 29.427,103.973 30.0937,102.973 31.5,102.5 Z"/></g>
<g><path style="opacity:0.012" fill="#78603b" d="M 76.5,103.5 C 76.7709,105.38 76.1042,106.713 74.5,107.5C 74.6596,105.847 75.3263,104.514 76.5,103.5 Z"/></g>
<g><path style="opacity:0.914" fill="#95773a" d="M 29.5,106.5 C 29.2624,108.404 28.2624,109.738 26.5,110.5C 26.7376,108.596 27.7376,107.262 29.5,106.5 Z"/></g>
<g><path style="opacity:0.322" fill="#81663b" d="M 26.5,111.5 C 26.573,113.027 25.9063,114.027 24.5,114.5C 24.427,112.973 25.0937,111.973 26.5,111.5 Z"/></g>
<g><path style="opacity:0.714" fill="#8c6f3a" d="M 71.5,113.5 C 71.573,115.027 70.9063,116.027 69.5,116.5C 69.427,114.973 70.0937,113.973 71.5,113.5 Z"/></g>
<g><path style="opacity:0.024" fill="#785f3b" d="M 162.5,115.5 C 163.674,116.514 164.34,117.847 164.5,119.5C 162.896,118.713 162.229,117.38 162.5,115.5 Z"/></g>
<g><path style="opacity:0.682" fill="#8e713a" d="M 203.5,114.5 C 204.906,114.973 205.573,115.973 205.5,117.5C 204.094,117.027 203.427,116.027 203.5,114.5 Z"/></g>
<g><path style="opacity:0.765" fill="#90723a" d="M 24.5,115.5 C 24.573,117.027 23.9063,118.027 22.5,118.5C 22.427,116.973 23.0937,115.973 24.5,115.5 Z"/></g>
<g><path style="opacity:0.165" fill="#9b7c38" d="M 91.5,115.5 C 91.573,117.027 90.9063,118.027 89.5,118.5C 89.427,116.973 90.0937,115.973 91.5,115.5 Z"/></g>
<g><path style="opacity:0.016" fill="#9a7b38" d="M 122.5,119.5 C 122.573,121.027 121.906,122.027 120.5,122.5C 120.427,120.973 121.094,119.973 122.5,119.5 Z"/></g>
<g><path style="opacity:0.035" fill="#7c623b" d="M 21.5,121.5 C 21.0679,122.71 20.4013,123.71 19.5,124.5C 19.2852,122.821 19.9519,121.821 21.5,121.5 Z"/></g>
<g><path style="opacity:0.012" fill="#7d643b" d="M 167.5,124.5 C 168.5,124.833 169.167,125.5 169.5,126.5C 168.167,126.5 167.5,125.833 167.5,124.5 Z"/></g>
<g><path style="opacity:0.941" fill="#a68438" d="M 169.5,126.5 C 171.027,126.427 172.027,127.094 172.5,128.5C 170.973,128.573 169.973,127.906 169.5,126.5 Z"/></g>
<g><path style="opacity:0.949" fill="#b28e37" d="M 210.5,127.5 C 211.478,127.811 212.145,128.478 212.5,129.5C 208.893,130.489 205.226,130.823 201.5,130.5C 198.833,130.5 196.167,130.5 193.5,130.5C 199.406,130.146 205.073,129.146 210.5,127.5 Z"/></g>
<g><path style="opacity:0.246" fill="#745d3b" d="M 174.5,129.5 C 180.797,130.32 187.131,130.653 193.5,130.5C 196.167,130.5 198.833,130.5 201.5,130.5C 193.677,131.656 185.677,131.823 177.5,131C 176.263,130.768 175.263,130.268 174.5,129.5 Z"/></g>
<g><path style="opacity:0.035" fill="#7d633b" d="M 62.5,130.5 C 62.7148,132.179 62.0481,133.179 60.5,133.5C 60.9321,132.29 61.5987,131.29 62.5,130.5 Z"/></g>
<g><path style="opacity:0.2" fill="#a28138" d="M 84.5,129.5 C 84.3404,131.153 83.6737,132.486 82.5,133.5C 82.2291,131.62 82.8958,130.287 84.5,129.5 Z"/></g>
<g><path style="opacity:0.322" fill="#9f7f38" d="M 115.5,131.5 C 115.573,133.027 114.906,134.027 113.5,134.5C 113.427,132.973 114.094,131.973 115.5,131.5 Z"/></g>
<g><path style="opacity:0.573" fill="#896d3b" d="M 14.5,134.5 C 14.573,136.027 13.9063,137.027 12.5,137.5C 12.427,135.973 13.0937,134.973 14.5,134.5 Z"/></g>
<g><path style="opacity:0.984" fill="#c49d37" d="M 219.5,142.5 C 184.736,141.84 150.069,141.173 115.5,140.5C 149.792,139.347 184.125,139.18 218.5,140C 219.252,140.671 219.586,141.504 219.5,142.5 Z"/></g>
<g><path style="opacity:0.682" fill="#8a6e3a" d="M 57.5,140.5 C 57.573,142.027 56.9063,143.027 55.5,143.5C 55.427,141.973 56.0937,140.973 57.5,140.5 Z"/></g>
<g><path style="opacity:0.455" fill="#82683b" d="M 7.5,147.5 C 7.57298,149.027 6.90632,150.027 5.5,150.5C 5.42702,148.973 6.09368,147.973 7.5,147.5 Z"/></g>
<g><path style="opacity:0.62" fill="#a88638" d="M 78.5,141.5 C 77.838,145.157 77.1713,148.824 76.5,152.5C 76.7529,154.858 77.0862,157.192 77.5,159.5C 76.8826,159.389 76.3826,159.056 76,158.5C 74.806,152.386 75.6394,146.719 78.5,141.5 Z"/></g>
<g><path style="opacity:0.443" fill="#876b3b" d="M 5.5,151.5 C 5.57298,153.027 4.90632,154.027 3.5,154.5C 3.42702,152.973 4.09368,151.973 5.5,151.5 Z"/></g>
<g><path style="opacity:0.047" fill="#9d7d38" d="M 218.5,152.5 C 218.59,155.152 217.924,157.485 216.5,159.5C 216.41,156.848 217.076,154.515 218.5,152.5 Z"/></g>
<g><path style="opacity:0.988" fill="#be9837" d="M 3.5,155.5 C 3.24358,157.792 3.57692,159.959 4.5,162C 17.4957,162.5 30.4957,162.667 43.5,162.5C 30.3397,163.66 17.0064,163.827 3.5,163C 0.859779,160.379 0.859779,157.879 3.5,155.5 Z"/></g>
<g><path style="opacity:0.545" fill="#a58338" d="M 80.5,163.5 C 82.0269,163.427 83.0269,164.094 83.5,165.5C 81.9731,165.573 80.9731,164.906 80.5,163.5 Z"/></g>
<g><path style="opacity:0.016" fill="#a07f38" d="M 213.5,163.5 C 212.7,165.741 211.034,166.741 208.5,166.5C 209.965,165.263 211.632,164.263 213.5,163.5 Z"/></g>
<g><path style="opacity:0.882" fill="#be9836" d="M 84.5,165.5 C 125.81,166.478 167.143,166.811 208.5,166.5C 168.335,167.665 128.002,167.831 87.5,167C 86.2625,166.768 85.2625,166.268 84.5,165.5 Z"/></g>
</svg>
